<svg id="a" xmlns="http://www.w3.org/2000/svg" viewBox="0 0 133.74 38.04" class="typo"><defs><style>.v{fill:#e2455b;}.w{fill:#0d3c37;}</style></defs><path id="b" class="v" d="M9.59,.4l.04,7.07-8.01,.04-.04-7.07H.15l.08,15.93H1.66l-.04-7.63,8.01-.04,.04,7.62h1.43l-.08-15.93h-1.43Z"/><rect id="c" class="v" x="15.8" y=".43" width="1.43" height="15.92" transform="translate(-.04 .08) rotate(-.29)"/><path id="d" class="v" d="M31.35,3.38c-.21-.61-.56-1.16-1.01-1.62-.45-.45-1-.79-1.61-1-.69-.23-1.41-.34-2.13-.33l-4.68,.02,.08,15.92h1.43l-.03-5.65,3.16-.02c.96,.02,1.91-.19,2.77-.62,.76-.39,1.37-1.01,1.77-1.76,.43-.86,.63-1.81,.6-2.77,0-.74-.11-1.48-.35-2.18m-1.52,4.32c-.28,.57-.74,1.03-1.3,1.33-.64,.31-1.34,.47-2.06,.45l-3.07,.02-.04-7.82h0l3.07-.02c.71-.02,1.42,.13,2.06,.44,.56,.29,1.02,.76,1.32,1.32,.32,.67,.48,1.4,.46,2.15,.03,.73-.13,1.46-.44,2.13"/><path id="e" class="v" d="M44.34,3.38c-.21-.61-.56-1.17-1.01-1.63-.45-.45-1-.79-1.61-1-.69-.23-1.41-.34-2.13-.33l-4.69,.02,.08,15.92h1.43l-.03-5.65,3.16-.02c.96,.02,1.91-.19,2.77-.62,.76-.39,1.37-1.01,1.77-1.76,.43-.86,.63-1.81,.6-2.77,0-.74-.11-1.48-.35-2.18m-1.52,4.32c-.28,.57-.74,1.03-1.3,1.33-.64,.31-1.34,.47-2.06,.45l-3.07,.02-.04-7.82h0l3.07-.02c.71-.02,1.42,.13,2.06,.44,.57,.3,1.03,.76,1.32,1.33,.32,.67,.48,1.4,.46,2.15,.03,.73-.13,1.46-.44,2.13"/><path id="f" class="v" d="M58.98,5.3c-.16-.79-.43-1.56-.8-2.27-.32-.62-.75-1.19-1.27-1.66-.5-.45-1.08-.8-1.71-1.03-1.38-.46-2.88-.45-4.25,.02-.63,.23-1.21,.59-1.7,1.04-.51,.48-.93,1.05-1.24,1.67-.36,.72-.62,1.49-.76,2.29-.18,.95-.26,1.91-.25,2.87,0,.96,.09,1.91,.27,2.85,.16,.79,.42,1.55,.79,2.27,.32,.62,.74,1.18,1.26,1.66,.5,.45,1.08,.79,1.71,1.01,.68,.24,1.4,.35,2.13,.34h0c.72,0,1.44-.12,2.13-.36,.63-.23,1.21-.59,1.7-1.04,.51-.48,.93-1.05,1.25-1.68,.37-.72,.63-1.49,.77-2.28,.18-.94,.26-1.9,.25-2.86,0-.96-.09-1.91-.28-2.85m-1.39,5.28c-.11,.67-.3,1.32-.56,1.95-.22,.53-.54,1.01-.94,1.43-.37,.38-.81,.67-1.3,.87-.52,.2-1.08,.31-1.65,.3h0c-.56,.01-1.12-.08-1.65-.28-.49-.19-.94-.48-1.3-.86-.4-.41-.72-.89-.95-1.42-.28-.62-.48-1.27-.59-1.93-.14-.8-.2-1.6-.2-2.41,0-.82,.05-1.63,.18-2.43,.11-.67,.3-1.32,.57-1.94,.23-.52,.55-1.01,.94-1.42,.36-.38,.8-.68,1.29-.88,.52-.2,1.08-.31,1.65-.3,.56-.01,1.12,.09,1.65,.29,.49,.19,.94,.48,1.31,.86,.4,.41,.73,.89,.95,1.42,.27,.62,.46,1.27,.58,1.94,.14,.8,.2,1.6,.2,2.41s-.05,1.62-.19,2.41"/><path id="g" class="v" d="M73.95,5.62c-.17-.78-.46-1.52-.85-2.21-.36-.62-.83-1.17-1.39-1.63-.57-.46-1.22-.8-1.92-1.02-.8-.24-1.63-.35-2.46-.34l-4.35,.02,.08,15.92h0l4.35-.02c.83,0,1.66-.11,2.45-.35,.7-.21,1.34-.56,1.91-1.02,.55-.46,1.02-1.02,1.37-1.64,.39-.69,.67-1.44,.83-2.21,.19-.9,.28-1.82,.27-2.74,0-.93-.1-1.85-.3-2.75m-1.37,5.08c-.13,.65-.35,1.28-.65,1.87-.27,.52-.63,.99-1.06,1.38-.44,.38-.95,.67-1.5,.86-.63,.21-1.29,.31-1.95,.31h-2.91l-.06-13.45,2.91-.02c.66-.01,1.33,.08,1.96,.29,.55,.18,1.06,.47,1.5,.84,.44,.39,.81,.86,1.08,1.38,.31,.59,.53,1.23,.67,1.88,.16,.77,.24,1.55,.24,2.33,0,.78-.06,1.56-.22,2.32"/><path id="h" class="v" d="M83.97,9.61c.59-.07,1.16-.24,1.68-.51,.69-.34,1.25-.88,1.62-1.56,.4-.76,.6-1.62,.57-2.48,0-.68-.1-1.36-.32-2-.37-1.12-1.26-1.99-2.39-2.34-.67-.21-1.37-.32-2.07-.3l-5.05,.02,.08,15.92h1.43l-.03-6.63h2.91l4.51,6.59h1.66l-4.6-6.71h0Zm-4.48-1.1l-.03-6.84,3.48-.02c.51-.01,1.01,.06,1.5,.21,.41,.12,.79,.34,1.1,.64,.3,.3,.53,.67,.67,1.08,.16,.48,.24,.98,.24,1.49,0,.5-.07,.99-.24,1.46-.15,.4-.39,.77-.7,1.07s-.68,.52-1.08,.66c-.44,.16-.9,.24-1.37,.23l-3.55,.02h-.02Z"/><path id="i" class="v" d="M102.38,5.3c-.16-.79-.43-1.56-.8-2.27-.32-.62-.75-1.19-1.27-1.66-.49-.45-1.07-.8-1.71-1.03-1.38-.46-2.88-.45-4.25,.02-.63,.23-1.21,.59-1.7,1.04-.51,.48-.93,1.05-1.24,1.68-.36,.72-.61,1.49-.76,2.29-.18,.94-.26,1.9-.25,2.87,0,.96,.09,1.91,.28,2.85,.15,.79,.42,1.55,.78,2.27,.32,.62,.74,1.18,1.26,1.65,.5,.45,1.08,.79,1.71,1.02,1.38,.46,2.88,.45,4.25-.02,.63-.23,1.21-.59,1.7-1.04,.51-.48,.93-1.05,1.25-1.68,.37-.72,.63-1.49,.77-2.28,.18-.94,.26-1.9,.25-2.86,0-.96-.09-1.91-.28-2.85m-1.39,5.27c-.11,.67-.3,1.32-.56,1.95-.22,.53-.54,1.01-.94,1.43-.37,.37-.81,.67-1.3,.87-.52,.2-1.08,.31-1.65,.3h0c-.56,.01-1.12-.08-1.65-.28-.49-.19-.94-.48-1.3-.86-.39-.42-.72-.89-.95-1.42-.28-.62-.48-1.26-.59-1.93-.14-.8-.21-1.6-.21-2.41s.05-1.63,.18-2.43c.11-.67,.3-1.32,.57-1.94,.23-.52,.55-1.01,.94-1.42,.36-.38,.8-.68,1.29-.88,.52-.2,1.08-.31,1.65-.3,.56-.01,1.12,.09,1.65,.29,.49,.19,.94,.48,1.31,.86,.4,.41,.73,.89,.95,1.42,.27,.62,.46,1.27,.58,1.94,.14,.8,.2,1.6,.2,2.41,0,.81-.05,1.62-.18,2.41"/><path id="j" class="v" d="M120.15,.38h-1.59l-5.2,11.26L108.05,.44h-1.66l.08,15.93h1.32l-.07-13.65,5.01,10.48h1.21l4.91-10.56,.07,13.67h1.32l-.09-15.92h0Z"/><path id="k" class="v" d="M133.73,15.09l-7.35,.04-.03-6.34,6.5-.03v-1.23l-6.51,.03-.03-5.89,7.23-.04V.4l-8.64,.04,.08,15.92,8.76-.04v-1.23h0Z"/><path id="l" class="w" d="M13.09,30.32c-1.21-.91-2.67-1.42-4.18-1.47,1.3-.14,2.52-.67,3.51-1.54,.64-.63,1.01-1.5,1.01-2.4,0-1.14-.51-2.22-1.42-2.91-1.35-.88-2.96-1.28-4.57-1.13l-7.44,.03v.26l.47,.18c.29,.08,.54,.25,.71,.49,.15,.26,.21,.56,.2,.85l.07,13.54c.01,.29-.05,.58-.19,.83-.18,.24-.42,.43-.71,.52l-.46,.18v.26l6.59-.03c1.28,.02,2.57-.13,3.81-.45,.86-.22,1.66-.61,2.37-1.14,.53-.41,.95-.94,1.22-1.55,.23-.53,.35-1.1,.35-1.67,0-1.1-.49-2.15-1.34-2.86m-7.88-8.92h1.4c.86-.09,1.7,.23,2.29,.86,.55,.88,.8,1.92,.72,2.95,.11,1-.16,2-.75,2.81-.69,.6-1.59,.9-2.5,.82h-1.11l-.03-7.44h-.02Zm4.26,15.02c-.77,.75-1.82,1.13-2.89,1.05h-1.3l-.04-8.11h1.24c1.07-.11,2.14,.2,2.99,.86,.69,.82,1.02,1.88,.92,2.95,.1,1.16-.23,2.32-.93,3.25"/><path id="m" class="w" d="M27.2,28.02c-.53-.94-1.31-1.7-2.26-2.21-2.03-1.02-4.44-1.01-6.46,.04-.95,.52-1.72,1.3-2.25,2.24-.57,1.05-.84,2.24-.81,3.43-.02,1.2,.25,2.38,.79,3.45,.5,.95,1.26,1.74,2.21,2.26,1.03,.55,2.19,.82,3.35,.78h0c1.16,.02,2.31-.26,3.33-.82,.93-.53,1.68-1.32,2.17-2.27,.53-1.08,.79-2.27,.76-3.47,.03-1.2-.26-2.39-.84-3.45m-3.24,7.17c-.07,.66-.34,1.29-.77,1.8-.39,.35-.9,.54-1.42,.51h0c-.53,.03-1.04-.15-1.44-.5-.44-.5-.72-1.13-.79-1.8-.19-1.21-.28-2.43-.26-3.65-.03-1.23,.04-2.46,.22-3.68,.07-.67,.34-1.29,.78-1.8,.39-.35,.91-.54,1.43-.51,.52-.03,1.03,.15,1.42,.5,.44,.51,.71,1.14,.78,1.8,.33,2.43,.35,4.9,.04,7.33"/><path id="n" class="w" d="M39.02,25.92c-.4-.38-.93-.57-1.47-.53-.49,0-.96,.14-1.38,.39-.47,.26-.9,.59-1.26,.98-.37,.39-.68,.83-.92,1.31v-.2l-.24-2.18-.26-.25-4.35,1.49v.25l.38,.1c.27,.03,.52,.16,.7,.37,.15,.25,.21,.54,.2,.82l.04,7.94c0,.27-.05,.55-.19,.79-.17,.23-.42,.4-.7,.46l-.38,.1v.25h0l6.57-.03v-.25l-.81-.22c-.57-.14-.96-.68-.89-1.26l-.04-7.08c.09-.25,.19-.49,.31-.72,.1-.21,.24-.39,.41-.55,.13-.21,.36-.33,.61-.32,.24,.04,.46,.18,.59,.39l.05,.05c.42,.64,1.12,1.03,1.88,1.06,.44,0,.86-.17,1.18-.48,.34-.35,.52-.84,.49-1.33,0-.5-.17-.98-.51-1.34"/><path id="o" class="w" d="M52.95,37.3c-.26-.05-.49-.2-.64-.42-.13-.24-.19-.52-.18-.79l-.06-11.94,.08-3.42-.27-.22-4.44,1.1v.25l.46,.09c.26,.02,.5,.14,.67,.34,.12,.23,.18,.49,.16,.75l.02,3.17c-.44-.24-.91-.41-1.39-.51-.54-.11-1.09-.17-1.64-.16-.95,0-1.88,.24-2.71,.71-.85,.49-1.55,1.23-1.99,2.11-.54,1.11-.79,2.33-.74,3.56-.04,1.2,.2,2.38,.69,3.47,.39,.83,1.03,1.53,1.83,1.99,.79,.43,1.69,.65,2.59,.63h0c.63,0,1.26-.09,1.87-.28,.53-.17,1.04-.41,1.5-.72l.22,.88,4.17-.29v-.24l-.22-.08,.02,.02Zm-6.12-.19h0c-.84,0-1.61-.45-2.03-1.17-.63-1.26-.91-2.68-.8-4.08-.11-1.47,.17-2.94,.81-4.26,.37-.79,1.13-1.31,2-1.36,.66,0,1.31,.21,1.86,.58l.05,9.69c-.54,.4-1.2,.62-1.88,.62"/><path id="p" class="w" d="M66.06,30.73c0-.19,.02-.38,.02-.57,0-.91-.21-1.82-.63-2.62-.42-.76-1.04-1.39-1.8-1.82-.86-.46-1.84-.69-2.82-.66h0c-1.05,0-2.08,.27-3,.78-.96,.52-1.77,1.29-2.33,2.23-.63,1.07-.94,2.3-.89,3.54-.03,1.2,.25,2.38,.8,3.45,.5,.93,1.26,1.7,2.19,2.21,.98,.52,2.09,.79,3.2,.76,1.1,.03,2.18-.25,3.13-.8,.87-.54,1.59-1.29,2.08-2.19l-.26-.23c-.41,.49-.91,.9-1.46,1.2-.64,.3-1.35,.44-2.05,.42-1.08,.08-2.14-.36-2.84-1.19-.75-1.17-1.1-2.55-1-3.94l7.56-.04c.05-.17,.09-.34,.1-.52m-3.33-.17l-4.34,.02c-.02-1.07,.08-2.14,.3-3.18,.1-.59,.38-1.14,.8-1.58,.35-.3,.79-.46,1.25-.45,.79-.05,1.52,.45,1.76,1.21,.35,1.3,.42,2.65,.22,3.98"/><path id="q" class="w" d="M77.66,20.8v.26l.68,.18c.4,.1,.6,.28,.61,.54,0,.34-.07,.67-.19,.99l-3.81,11.44-3.9-11.37c-.11-.31-.15-.63-.12-.96,.04-.26,.26-.44,.66-.55l.8-.24v-.26l-7.47,.04v.26l.62,.2c.31,.08,.59,.23,.82,.45,.22,.23,.39,.51,.48,.82l5.63,15.44h1.92l5.11-15.47c.1-.3,.22-.58,.39-.85,.17-.24,.42-.4,.7-.46l.7-.21v-.26l-3.63,.02h0Z"/><g><path class="w" d="M86.3,37.68c-.26-.06-.5-.22-.66-.44-.14-.24-.2-.51-.19-.79l-.03-6.89,.06-3.5-.25-.24-4.49,1.47v.25l.35,.07c.26,.03,.5,.16,.68,.35,.14,.23,.21,.5,.19,.77l.04,7.7c0,.27-.05,.55-.18,.79-.16,.23-.4,.39-.67,.45l-.34,.1v.25l5.76-.03v-.25l-.25-.06h-.02Z"/><path class="w" d="M82.2,24.01h0c.39,.35,.89,.53,1.42,.52,.52,.01,1.02-.18,1.4-.54,.74-.73,.75-1.93,.02-2.67,0,0-.02-.02-.03-.03-.38-.34-.89-.53-1.4-.51-.52-.01-1.02,.18-1.41,.52-.74,.71-.77,1.88-.06,2.63,.02,.03,.05,.05,.07,.07h-.01Z"/></g><path id="r" class="w" d="M99.23,30.72c0-.19,.02-.38,.02-.57,0-.91-.21-1.82-.63-2.62-.42-.76-1.04-1.39-1.8-1.82-.87-.46-1.84-.69-2.82-.66-1.05,0-2.08,.27-3,.78-.96,.52-1.77,1.29-2.34,2.23-.63,1.07-.94,2.3-.89,3.54-.03,1.2,.25,2.38,.8,3.45,.5,.93,1.26,1.7,2.19,2.21,.98,.52,2.09,.79,3.2,.76,1.1,.03,2.18-.25,3.13-.8,.88-.53,1.59-1.29,2.08-2.19l-.26-.23c-.41,.49-.91,.9-1.46,1.2-.64,.3-1.35,.44-2.05,.42-1.08,.08-2.14-.36-2.84-1.19-.75-1.17-1.1-2.55-1-3.94l7.56-.04c.05-.17,.09-.34,.1-.52m-3.33,.03l-4.34,.02c-.02-1.07,.08-2.14,.3-3.18,.1-.59,.38-1.14,.8-1.58,.35-.3,.79-.46,1.25-.45,.79-.05,1.52,.45,1.76,1.21,.35,1.3,.42,2.65,.22,3.98"/><g><path class="w" d="M102.16,24.09h0c.38,.35,.89,.54,1.41,.52,.52,.01,1.01-.18,1.39-.53,.74-.73,.74-1.92,0-2.65,0,0-.02-.02-.03-.03-.38-.34-.89-.52-1.4-.51-.52-.01-1.02,.17-1.4,.52-.74,.71-.76,1.88-.06,2.61,.02,.02,.04,.05,.07,.07h0Z"/><path class="w" d="M106.23,37.68c-.26-.06-.49-.22-.65-.44-.13-.24-.2-.51-.19-.78l-.03-6.85,.06-3.47-.24-.24-4.47,1.47v.24l.34,.07c.26,.03,.5,.15,.67,.35,.14,.23,.2,.5,.19,.77l.04,7.65c0,.27-.05,.54-.18,.78-.16,.22-.4,.38-.67,.44l-.34,.1v.25l5.72-.03v-.24l-.25-.07Z"/></g><path id="s" class="w" d="M113.4,37.68c-.27-.07-.5-.22-.66-.45-.14-.24-.21-.51-.2-.79,0-.59,0-1.18-.02-1.77,0-.59-.02-1.19-.02-1.8l-.04-8.35,.08-3.42-.29-.22-4.46,1.07v.24l.32,.07c.26,.05,.5,.18,.68,.38,.15,.22,.22,.48,.2,.74l.07,13.07c.04,.57-.33,1.08-.87,1.22l-.29,.1v.24h0l5.84-.03v-.24l-.31-.07h-.03Z"/><path id="t" class="w" d="M120.39,37.68c-.27-.07-.5-.22-.66-.45-.14-.24-.21-.51-.2-.79,0-.59,0-1.18-.02-1.77,0-.59-.02-1.19-.02-1.8l-.04-8.35,.08-3.42-.29-.22-4.46,1.07v.24l.32,.07c.26,.05,.5,.18,.68,.38,.15,.22,.22,.48,.2,.74l.07,13.07c.04,.57-.33,1.08-.87,1.22l-.29,.1v.24h0l5.84-.03v-.24l-.31-.07h-.03Z"/><path id="u" class="w" d="M133.71,30.73c0-.19,.02-.38,.02-.57,0-.91-.21-1.82-.63-2.62-.42-.76-1.04-1.39-1.8-1.82-.86-.47-1.84-.69-2.82-.66h0c-1.05,0-2.08,.27-3,.78-.96,.52-1.77,1.29-2.34,2.23-.63,1.07-.94,2.3-.89,3.54-.03,1.2,.25,2.38,.8,3.45,.5,.93,1.26,1.7,2.19,2.21,.98,.52,2.09,.79,3.2,.76,1.1,.03,2.18-.25,3.13-.8,.87-.54,1.59-1.29,2.08-2.19l-.26-.23c-.41,.49-.91,.9-1.47,1.2-.64,.3-1.35,.44-2.05,.42-1.08,.08-2.13-.36-2.83-1.19-.75-1.17-1.1-2.55-1-3.94l7.56-.04c.05-.17,.09-.34,.1-.52m-3.32,.03l-4.34,.02c-.02-1.07,.08-2.14,.3-3.18,.1-.59,.38-1.14,.8-1.58,.35-.3,.79-.46,1.25-.45h0c.79-.05,1.52,.45,1.76,1.21,.35,1.3,.42,2.65,.22,3.98"/></svg>