<svg id="a" xmlns="http://www.w3.org/2000/svg" viewBox="0 0 100.58 46.9" class="sigle"><defs><style>.i{fill:#e2455b;}.j{fill:#08241e;}.k{fill:#0d3c37;}</style></defs><path id="b" class="j" d="M3.93,28.12c.16,.19,.44,.21,.63,.05,5.43-2.87,11.44-4.29,17.42-5.52,.77-.26,.8-.68-.05-.66-3.94-.07-7.89,.07-11.81,.42-4.92-5.79,6.69-1.78,7.55-4.16,.13-.59-.14-.49-1.55-.44-3.34,.04-6.63-.74-9.6-2.27-.21-.16-1.57-.72-.96-1.04,.19-.07,.43-.25,.46-.43,.03-.46,0-.91,0-1.37,.02-.24,.33,0,.45-.16,.11-.38-.15-.83-.26-1.21-.14-.42,.62-.42,.94-.6,.27-.1,.36-.51-.34-.54C5.62,7.1,1.07,6.31,.04,10.45c-.21,1.36,.5,2.7,1.74,3.3,.26,.12-.12,.41-.22,.62C-1.34,18.65,.09,24.88,3.93,28.12"/><path id="c" class="i" d="M73.85,8.99s.08,.01,.12,.02l.14-.06c-.81-.96-1.26-1.94-.61-3.13h.17c.41,.82,1.07,1.5,1.88,1.93,.35,.19,.68,.38,1.01,.59-.11-.99-.1-2.17,1.93-1.44,.19,.08,.4,.08,.58-.02,.3-.3,.56-.62,.84-.95,.16-.15,.23,.2,.41,.16,.4-.13,.43-1.32,.88-1.13,.22,.1,.45,.2,.69,.29,.25,.1,.56-.13,.09-.58-.06-.06-.08-.15-.04-.22,.74-1.56,.07-3.41-1.49-4.15-1.09-.51-2.37-.36-3.3,.4-.97,.81-1.31,2.16-.82,3.33,.08,.17-.11,.18-.28,.23-.02,0-1.03,.08-1.81,.14-.58,0-1.15-.02-1.73-.03-1.28,0-2.57,.12-3.83,.35-.6,.1-1.2,.24-1.8,.37-.4,.08-.68,.43-.68,.83-.18,.86-2.18,.72-1.61,3.08,.2,.6,.63,1.11,1.19,1.41,.66-.37,1.37-.66,2.1-.88,1.92-.63,3.96-.82,5.96-.55h.01Z"/><path id="d" class="k" d="M62.14,15.05c.17-.01,.35-.03,.54-.05-.18,.02-.36,.04-.54,.05"/><path id="e" class="k" d="M60.73,15.65c-.16,.04-.32,.08-.46,.11,.15-.03,.31-.07,.46-.11"/><path id="f" class="k" d="M63.07,14.95l-.08,.03,.08-.03"/><path id="g" class="i" d="M97.74,19.59c.96,.83,2.88-.45,2.84-1.71,0-.09-.03-.18-.07-.26-1.52-2.3-3.16-4.52-4.92-6.64-.6-.66-1.28-1.25-2.01-1.76-.68-.52-1.4-.97-2.15-1.37-.81-.43-1.47-1.11-1.89-1.93h-.17c-.64,1.19-.2,2.17,.61,3.13l-.13,.06-.12-.02c-2-.27-4.04-.08-5.96,.55-1.33,.4-2.62,.91-3.87,1.53,1.62,2.19,3.61,4.19,4.79,6.64,.04,1.2-1.8,2.55-2.84,1.71-.46-.69-1.19-1.16-2.01-1.3h0c-.93-.29-2.04-.65-3-.95-.96-.27-1.81-.83-2.44-1.6-.29-.09-.63-.14-.93-.2-1.42,1.43-2.6,3.08-3.48,4.89-.2,.28-.33,.61-.37,.96,.04,1.62,.1,3.27-.02,4.89-.13,1.21-.48,2.39-1.02,3.47-.04,.11-.16,.24-.14,.36,.23,.26,.49,.5,.73,.76,.71,.73,1.44,1.47,2.17,2.21l.03,.03c2.03,2.07,4.08,4.12,6.1,6.2,.46,.48,.92,.97,1.38,1.45,.02-.44-.08-.87-.29-1.25-1.1-1.91-1.98-3.93-2.63-6.03-.02-.06-.24-.81-.46-1.43,2.36,.72,4.67,1.63,6.89,2.71,4.5,2.11,8.55,5.08,11.93,8.73,.14,.14,.33,.23,.53,.26,.53,.05,.92,.51,.88,1.04,0,.1-.03,.2-.07,.29-.3,.54-.11,1.21,.42,1.52,.11,.06,.23,.11,.35,.13,.93,.26,1.91,.25,2.83-.03,.32-.08,.46-.27,.22-.58-.42-.53-.81-1.09-1.27-1.58-1.59-1.72-3.19-3.45-4.82-5.14-2.02-2.09-4.07-4.14-6.1-6.21-.99-1.01-1.98-2.01-2.92-2.98-.02-.02-.02-.05-.01-.07,.2-.42,.4-.78,.54-1.16,.43-1.13,.66-2.32,.69-3.52,.01-1.24,.04-2.48-.03-3.72-.04-.34,.04-.68,.23-.97,.06-.08,.09-.18,.14-.26,.88-1.81,2.05-3.47,3.48-4.89,.23,.04,.47,.09,.7,.14,.05,.01,.23,.07,.23,.07,.52,.59,1.15,1.07,1.86,1.42,.6,.18,2.36,.76,3.58,1.12h0c.75,.11,1.43,.52,1.86,1.15l.15,.16h0l-.02-.02Z"/><path id="h" class="j" d="M78.84,40.68c-.46-.49-.91-.97-1.38-1.45-2.01-2.09-4.07-4.14-6.1-6.2l-.03-.03c-.73-.74-1.46-1.49-2.17-2.21-.24-.25-.5-.5-.73-.76-.01-.12,.11-.25,.15-.36,.55-1.09,.89-2.26,1.02-3.47,.12-1.62,.06-3.26,.02-4.89,.05-.34,.17-.67,.37-.96,.88-1.81,2.06-3.46,3.48-4.89,.3,.06,.64,.11,.93,.2,.63,.77,1.48,1.33,2.44,1.6,.96,.3,2.07,.66,3,.95h0c.82,.14,1.55,.61,2.01,1.31,1.04,.84,2.88-.51,2.84-1.71-1.18-2.44-3.18-4.45-4.79-6.64-.07-.09-.13-.18-.2-.27-.6-.66-1.27-1.25-2-1.77-.37-.28-.75-.54-1.14-.79-.33-.21-.67-.4-1.01-.59-.81-.43-1.47-1.11-1.88-1.93h-.17c-.64,1.19-.2,2.17,.61,3.13l-.14,.06-.12-.02c-2-.27-4.04-.08-5.96,.55-.73,.21-1.43,.51-2.1,.88-.47,.25-.95,.53-1.55,.82-1.34,.88-4.07,2.57-5.77,2.69-.89-.02-1.77-.14-2.63-.37-.47-.17-.47,.12-.15,.34,1.73,1.28,5.03,1.39,7.38,1.04l-.08,.03c-.74,.26-1.5,.48-2.27,.66-.16,.04-.32,.08-.46,.11-3.29,.68-5.52,.94-8.66,1.31-2.58,.35-5.05-.68-7.58-1.01-5.68-.96-12.27,.47-14.41,5.07,7.87-.42,16.71-.82,24.24,.04-15.29-.12-30.97,1.11-45.32,6.8-4.05,1.63-7.42,4.8-7.42,9.35,0,5.31,4.31,9.6,9.62,9.6,4,0,7.58-2.49,8.99-6.23,3.05-.49,3.53-1.97,5.25-4.12,2.41-2.69,5.78-4.21,9.1-5.42,1.35,2.06,2.46,3.66,2.83,6.05,0,.46,.23,.89,.6,1.15,2.11,1.34,4.11,2.86,5.95,4.55,.48,.58,1.13,.98,1.86,1.15,.47,.06,.67,.66,.5,1.12-.66,2.03,2.21,1.89,3.44,1.5,.63-.17,.69-.35,.23-.85-2.61-3.02-5.56-5.74-8.78-8.1-.55-.35-.55-2.12-.71-2.82-.24-1.71-.32-3.43-.25-5.15,3.95-.34,7.92-.2,11.84,.43,.26,.03,.5,.15,.69,.33,2.52,2.79,5.33,5.15,7.06,8.57,.04,.33-2.53,.09-2.88,.07-1.04-.1-2.03-.49-2.86-1.12-.23-.21-.54-.33-.85-.33-.73,0-1.08-.52-.92-1.26,.18-2.04-2.73-1.38-3.85-.81-.38,.17-.4,.36-.08,.63,1.39,1.17,2.8,2.33,4.21,3.47,.47,.45,1.03,.78,1.66,.96,2.13,.46,4.25,.94,6.37,1.43,.45,.14,.94,.03,1.29-.28,1.1-.61,1.51-2,.9-3.1h0c-.99-1.71-1.77-3.53-2.32-5.42-.02-.06-.24-.81-.46-1.43,2.36,.72,4.67,1.63,6.89,2.71,3,1.44,5.82,3.24,8.4,5.34,.98,.81,1.92,1.69,2.81,2.61,.25,.26,.49,.52,.73,.79,.14,.14,.33,.23,.53,.26,.53,.05,.92,.51,.88,1.04,0,.1-.03,.2-.07,.29-.3,.54-.11,1.21,.42,1.52,.11,.06,.23,.11,.35,.13,.93,.26,1.91,.25,2.82-.03,.32-.08,.46-.27,.22-.58-.42-.53-.81-1.09-1.27-1.58-1.14-1.24-2.29-2.46-3.44-3.68M25.55,31.41c-1.79,2.06-2.89,6.3-5.32,7.36,.02-.12,.03-.25,.04-.37,.34-3.04-.78-6.06-3.02-8.13,1.72-3.22,8.73-5.4,8.73-5.41,.64-.2,1.3-.36,1.97-.46,.59-.04,1.11,.06,1.17,.51-.01,1.22,.6,2.42,.65,3.57-1.05,1.47-2.99,1.75-4.23,2.92h.01Z"/></svg>