<?xml version="1.0" encoding="UTF-8"?><svg id="a" xmlns="http://www.w3.org/2000/svg" viewBox="0 0 193 46.83"><g id="b"><path id="c" d="M19.58,24.65v12.57c.04,3.79-2.99,6.9-6.79,6.95H6.82c-3.8-.04-6.84-3.16-6.8-6.95v-.76H3.44v.76c-.04,1.91,1.47,3.48,3.38,3.53h5.98c1.9-.05,3.41-1.63,3.36-3.53v-12.57h3.43Z"/><rect id="d" x="21.61" y="8.46" width="23.09" height="3.42" transform="translate(2.52 26.42) rotate(-45.01)"/><rect id="e" x="47.36" y="3.45" width="3.42" height="17.24" transform="translate(5.84 38.24) rotate(-45)"/><rect id="f" x="21.61" y="32.23" width="23.08" height="3.42" transform="translate(-14.29 33.39) rotate(-45)"/><rect id="g" x="47.38" y="27.27" width="3.42" height="17.19" transform="translate(-10.98 45.22) rotate(-45)"/><path id="h" d="M17.86,9.51c1.25-.89,1.97-2.36,1.9-3.9,0-3.15-2.56-5.1-6.68-5.1H0V19.1H12.58c4.57,0,7.17-1.99,7.17-5.45,0-2.04-.59-3.39-1.89-4.14M3.53,3.9H12.8c3,0,3.41,1.02,3.41,2.01s-.41,2.02-3.41,2.02H3.53V3.9ZM12.22,15.72H3.53v-4.43H12.22c3.9,0,3.9,1.55,3.9,2.22,0,.59,0,2.21-3.9,2.21"/><path id="i" d="M73.61,.52h-12.16V19.1h3.56v-6.24h8.6c4.43,0,7.29-2.42,7.29-6.18s-2.86-6.16-7.29-6.16m-8.6,3.42h8.44c2.54,0,3.82,.93,3.82,2.74s-1.28,2.75-3.82,2.75h-8.44V3.94Z"/><path id="j" d="M105.48,.52V3.9h-8.06v15.2h-3.56V3.9h-8.05V.52h19.67Z"/><rect id="k" x="112.3" y=".52" width="3.58" height="18.58"/><path id="l" d="M143.55,13.39c0,3.77-3.73,6.21-9.49,6.21-3.82,.08-7.55-1.23-10.47-3.7l-.59-.52,2.48-2.65,.55,.49c2.23,2,5.16,3.06,8.15,2.95,3.55,0,5.77-1,5.77-2.65,0-1.26-1.57-1.8-6.42-2.21-2.63-.23-9.61-.82-9.61-5.51,0-3.42,3.85-5.81,9.36-5.81,3.37-.07,6.65,1.08,9.24,3.24l.65,.58-2.81,2.39-.49-.49c-1.79-1.57-4.12-2.4-6.5-2.3-2.42-.02-4.55,.53-5.4,1.38-.27,.23-.42,.57-.43,.93,0,1.48,3.23,1.86,6.53,2.12,4.93,.4,9.49,1.34,9.49,5.54"/><path id="m" d="M167.93,.52V3.9h-8.07v15.2h-3.58V3.9h-8.02V.52h19.67Z"/><path id="n" d="M192.76,15.67v3.42h-18.01V.52h17.77V3.94h-14.19V7.94h12.02v3.42h-12.02v4.31h14.44Z"/><path id="o" d="M78.25,37.32l3.35,1.67-.44,.7c-1.86,2.94-5.19,4.55-9.39,4.55-6.69,0-11.02-3.85-11.02-9.8s4.25-9.8,11.08-9.8c4.15,0,7.46,1.61,9.31,4.55l.46,.72-3.33,1.66-.37-.61c-1.41-2.39-4.09-2.89-6.09-2.89-4.73,0-7.46,2.33-7.46,6.38s2.72,6.38,7.46,6.38c2.94,0,4.99-.96,6.09-2.88l.35-.62Z"/><path id="p" d="M109.59,34.45c0-6.04-4.27-9.8-11.14-9.8s-11.14,3.76-11.14,9.8,4.26,9.8,11.14,9.8c1.62,.02,3.23-.22,4.78-.71l3.07,3.3,2.42-2.25-2.48-2.69c2.21-1.83,3.45-4.58,3.35-7.44m-11.14,6.38c-4.78,0-7.53-2.31-7.53-6.38s2.75-6.38,7.53-6.38,7.52,2.33,7.52,6.38c.1,1.86-.7,3.65-2.15,4.82l-3.21-3.45-2.43,2.25,2.39,2.59c-.7,.11-1.41,.17-2.12,.17"/><path id="q" d="M138.12,25.17v9.77c0,5.75-3.73,9.31-9.74,9.31s-9.77-3.65-9.77-9.31v-9.77h3.56v9.65c0,3.82,2.27,6.01,6.21,6.01s6.18-2.19,6.18-6.01v-9.65h3.56Z"/><path id="r" d="M165.84,40.26v3.42h-18V25.1h17.76v3.42h-14.2v4h12.04v3.42h-12.03v4.31h14.44Z"/><path id="s" d="M193,25.17v3.38h-8.06v15.2h-3.58v-15.2h-8.03v-3.38h19.67Z"/></g></svg>