<svg id="a" xmlns="http://www.w3.org/2000/svg" viewBox="0 0 274 48.55"><defs><style>.ae{fill:#fff;}.af{fill:#e1455b;}.ag{fill:#0d3c37;}</style></defs><path id="b" class="af" d="M122.22,25.01l-.09-18.1h1.63s.04,8.03,.04,8.03l9.1-.04-.04-8.04h1.63s.09,18.09,.09,18.09h-1.63s-.04-8.65-.04-8.65l-9.1,.04,.04,8.66h-1.63Z"/><rect id="c" class="af" x="139.92" y="6.82" width="1.63" height="18.1" transform="translate(-.08 .72) rotate(-.29)"/><path id="d" class="af" d="M146.97,24.89l-.09-18.1,5.33-.03c.82-.02,1.64,.11,2.42,.38,.69,.24,1.31,.63,1.83,1.14,.51,.52,.9,1.15,1.15,1.84,.28,.8,.41,1.64,.4,2.48,.04,1.09-.2,2.17-.68,3.14-.45,.86-1.15,1.56-2.01,2-.98,.48-2.06,.72-3.15,.7l-3.59,.02,.03,6.41h-1.63Zm1.55-16.7l.04,8.89,3.49-.02c.81,.02,1.61-.16,2.34-.51,.64-.33,1.16-.86,1.48-1.51,.36-.75,.53-1.58,.51-2.42,.02-.84-.16-1.68-.53-2.44-.33-.64-.85-1.17-1.49-1.51-.73-.36-1.53-.53-2.34-.51l-3.49,.02h0Z"/><path id="e" class="af" d="M161.73,24.81l-.09-18.1,5.33-.03c.82-.02,1.64,.11,2.42,.37,.69,.24,1.31,.63,1.83,1.14,.51,.52,.9,1.15,1.15,1.84,.28,.8,.41,1.64,.4,2.48,.04,1.09-.2,2.17-.68,3.14-.45,.86-1.15,1.56-2.01,2-.98,.48-2.06,.72-3.15,.7l-3.59,.02,.03,6.41h-1.63Zm1.54-16.7l.04,8.89,3.49-.02c.81,.02,1.61-.16,2.34-.51,.64-.33,1.16-.86,1.48-1.51,.36-.75,.53-1.58,.51-2.42,.02-.84-.16-1.68-.53-2.44-.33-.64-.85-1.17-1.49-1.51-.73-.36-1.53-.53-2.34-.51l-3.49,.02h0Z"/><path id="f" class="af" d="M182.39,24.97c-.82,.01-1.64-.12-2.42-.39-.72-.25-1.38-.64-1.95-1.15-.59-.53-1.07-1.17-1.43-1.88-.42-.81-.72-1.68-.89-2.58-.21-1.07-.32-2.15-.31-3.24-.01-1.09,.08-2.18,.28-3.26,.17-.9,.46-1.78,.87-2.6,.36-.71,.83-1.36,1.41-1.91,.56-.52,1.22-.92,1.93-1.19,1.56-.54,3.26-.55,4.83-.02,.72,.26,1.38,.65,1.95,1.17,.59,.54,1.07,1.18,1.44,1.89,.42,.81,.73,1.68,.91,2.58,.41,2.14,.42,4.34,.03,6.49-.17,.9-.46,1.77-.88,2.59-.36,.71-.85,1.36-1.42,1.91-.56,.52-1.22,.92-1.93,1.19-.78,.28-1.59,.42-2.42,.41h0Zm0-1.42c.64,0,1.28-.11,1.87-.35,.56-.22,1.06-.56,1.48-.99,.45-.47,.81-1.02,1.07-1.62,.3-.71,.51-1.45,.63-2.21,.28-1.82,.27-3.67-.03-5.48-.13-.76-.35-1.5-.66-2.21-.26-.6-.62-1.15-1.08-1.61-.42-.42-.93-.75-1.49-.97-.6-.23-1.24-.34-1.88-.33-.64,0-1.28,.11-1.87,.35-.56,.22-1.06,.56-1.47,1-.44,.48-.8,1.02-1.07,1.62-.31,.7-.53,1.44-.65,2.2-.28,1.83-.27,3.68,.03,5.51,.13,.76,.36,1.5,.67,2.2,.27,.59,.63,1.14,1.08,1.61,.41,.43,.92,.76,1.48,.97,.6,.22,1.24,.33,1.88,.31h0Z"/><path id="g" class="af" d="M193.66,24.65l-.09-18.1,4.94-.03c.95-.02,1.89,.11,2.79,.39,.79,.24,1.53,.63,2.18,1.15,.63,.52,1.17,1.14,1.58,1.85,.45,.79,.77,1.64,.97,2.52,.44,2.06,.45,4.18,.03,6.24-.19,.88-.51,1.73-.95,2.51-.4,.71-.93,1.35-1.56,1.87-.64,.52-1.38,.92-2.17,1.16-.9,.27-1.84,.41-2.79,.4l-4.94,.03h0Zm4.93-1.42c.75,0,1.51-.11,2.22-.35,.63-.21,1.2-.54,1.7-.98,.5-.44,.91-.98,1.21-1.57,.34-.67,.59-1.39,.74-2.12,.34-1.75,.33-3.54-.03-5.29-.16-.75-.41-1.47-.76-2.14-.31-.6-.72-1.13-1.22-1.57-.5-.43-1.08-.75-1.71-.96-.72-.23-1.47-.34-2.23-.32l-3.31,.02,.08,15.31,3.31-.02h0Z"/><path id="h" class="af" d="M210.73,24.57l-.09-18.1,5.74-.03c.8-.02,1.59,.09,2.35,.34,1.28,.4,2.29,1.39,2.71,2.66,.25,.73,.37,1.5,.36,2.27,.03,.98-.19,1.95-.65,2.82-.42,.76-1.06,1.38-1.84,1.77-.6,.31-1.24,.5-1.91,.58l5.23,7.63h-1.89s-5.13-7.49-5.13-7.49l-3.31,.02,.04,7.53h-1.63s0,0,0,0Zm1.54-16.71l.04,7.78,4.04-.02c.53,0,1.06-.09,1.56-.27,.46-.16,.87-.42,1.22-.76,.35-.34,.62-.76,.8-1.22,.19-.53,.29-1.09,.28-1.65,0-.58-.08-1.15-.27-1.69-.16-.46-.41-.88-.76-1.22-.35-.34-.78-.59-1.24-.73-.55-.17-1.13-.25-1.71-.24l-3.96,.02Z"/><path id="i" class="af" d="M231.73,24.72c-.82,.01-1.64-.12-2.42-.39-.72-.25-1.38-.65-1.94-1.15-.59-.54-1.07-1.17-1.43-1.88-.42-.81-.72-1.68-.89-2.58-.21-1.07-.32-2.15-.31-3.24-.01-1.09,.08-2.18,.28-3.26,.17-.9,.46-1.78,.86-2.6,.36-.71,.83-1.36,1.41-1.91,.56-.52,1.22-.92,1.93-1.19,1.57-.54,3.27-.55,4.84-.02,.72,.26,1.38,.65,1.94,1.17,.59,.54,1.07,1.18,1.44,1.89,.42,.81,.73,1.68,.91,2.58,.21,1.07,.32,2.15,.31,3.24,.01,1.09-.08,2.18-.28,3.25-.17,.9-.46,1.77-.88,2.59-.36,.71-.85,1.36-1.43,1.91-.56,.52-1.22,.92-1.93,1.19-.78,.28-1.59,.42-2.42,.41Zm0-1.42c.64,0,1.28-.11,1.87-.35,.56-.23,1.06-.56,1.48-.99,.45-.47,.81-1.02,1.07-1.62,.3-.71,.51-1.45,.63-2.21,.28-1.82,.27-3.67-.03-5.48-.13-.76-.35-1.5-.66-2.21-.26-.6-.62-1.15-1.08-1.61-.42-.42-.93-.76-1.49-.97-.6-.23-1.24-.34-1.88-.33-.64,0-1.28,.11-1.87,.34-.56,.22-1.06,.57-1.47,1-.44,.48-.8,1.02-1.07,1.62-.31,.7-.53,1.44-.65,2.2-.15,.91-.22,1.84-.21,2.77,0,.92,.08,1.83,.23,2.74,.13,.76,.35,1.5,.67,2.2,.27,.59,.63,1.14,1.08,1.61,.42,.43,.92,.76,1.48,.97,.6,.22,1.24,.33,1.88,.31h0Z"/><path id="j" class="af" d="M243,24.4l-.09-18.1h1.89s6.04,12.73,6.04,12.73l5.91-12.8h1.81s.09,18.09,.09,18.09h-1.5s-.08-15.53-.08-15.53l-5.57,11.99h-1.37s-5.7-11.91-5.7-11.91l.08,15.51h-1.5s0,.01,0,.01Z"/><path id="k" class="af" d="M264.05,24.3l-.09-18.1,9.83-.05v1.4s-8.22,.04-8.22,.04l.03,6.7,7.4-.04v1.4s-7.39,.04-7.39,.04l.04,7.21,8.35-.04v1.4s-9.95,.05-9.95,.05h0Z"/><path id="l" class="ae" d="M122.05,48.01v-.3l.53-.21c.32-.11,.61-.32,.81-.59,.16-.29,.23-.62,.22-.95l-.08-15.38c.02-.34-.06-.67-.23-.97-.2-.27-.49-.47-.81-.56l-.53-.2v-.3l8.46-.04c2.4-.01,4.13,.42,5.2,1.29,1.03,.79,1.62,2.01,1.61,3.31,0,1.03-.42,2.01-1.15,2.73-1.12,.98-2.51,1.59-3.99,1.74,1.72,.06,3.38,.64,4.76,1.67,.97,.8,1.53,1.99,1.52,3.25,0,.65-.14,1.3-.4,1.9-.31,.69-.79,1.3-1.39,1.76-.8,.61-1.72,1.05-2.69,1.3-1.41,.36-2.87,.54-4.33,.51l-7.49,.04h0Zm5.87-10.44h1.27c1.03,.09,2.06-.25,2.84-.93,.67-.92,.98-2.06,.85-3.19,.1-1.18-.19-2.36-.81-3.36-.66-.72-1.63-1.09-2.6-.99h-1.59s.04,8.47,.04,8.47h0Zm.05,9.82h1.47c1.21,.08,2.41-.35,3.28-1.21,.8-1.06,1.17-2.37,1.06-3.69,.11-1.21-.26-2.42-1.05-3.35-.96-.75-2.18-1.11-3.39-.99h-1.41s.05,9.24,.05,9.24h0Z"/><path id="m" class="ae" d="M146.71,48.32c-1.33,.04-2.64-.27-3.81-.89-1.07-.59-1.94-1.48-2.51-2.57-.62-1.21-.93-2.56-.9-3.92-.04-1.36,.27-2.7,.92-3.9,.59-1.07,1.48-1.96,2.55-2.55,2.3-1.2,5.03-1.22,7.34-.05,1.08,.58,1.97,1.45,2.57,2.51,.66,1.2,.99,2.55,.96,3.92,.04,1.37-.25,2.72-.86,3.94-.55,1.08-1.41,1.98-2.47,2.58-1.16,.63-2.47,.95-3.79,.93h0Zm0-.58c.59,.03,1.17-.18,1.61-.59,.49-.58,.79-1.3,.87-2.05,.35-2.77,.34-5.57-.04-8.34-.09-.75-.4-1.47-.89-2.04-.44-.4-1.02-.6-1.62-.57-.6-.02-1.18,.19-1.63,.59-.5,.58-.81,1.29-.89,2.05-.21,1.39-.29,2.79-.25,4.18-.02,1.39,.08,2.78,.3,4.15,.08,.76,.4,1.47,.9,2.04,.45,.39,1.04,.6,1.63,.57h0Z"/><path id="n" class="ae" d="M155.13,48.13v-.29l.43-.12c.32-.07,.6-.26,.79-.52,.15-.27,.23-.59,.21-.9l-.04-9.03c.02-.33-.05-.65-.22-.94-.2-.23-.49-.38-.79-.41l-.43-.11v-.29l4.95-1.7,.29,.29,.27,2.48v.23c.27-.55,.62-1.05,1.04-1.49,.42-.44,.9-.82,1.43-1.12,.48-.28,1.02-.43,1.57-.44,.62-.05,1.23,.17,1.68,.6,.39,.41,.6,.96,.59,1.53,.04,.56-.16,1.11-.55,1.51-.36,.35-.84,.55-1.34,.54-.87-.03-1.67-.47-2.14-1.2l-.06-.06c-.15-.24-.39-.4-.66-.44-.28-.01-.54,.13-.69,.36-.19,.18-.35,.39-.47,.62-.14,.27-.25,.54-.35,.82l.04,8.05c-.07,.67,.36,1.28,1.02,1.44l.92,.26v.29l-7.47,.04h0Z"/><path id="o" class="ae" d="M173.59,48.42c-1.03,.02-2.04-.23-2.95-.72-.91-.53-1.63-1.32-2.08-2.26-.56-1.24-.83-2.59-.78-3.95-.06-1.4,.23-2.79,.84-4.04,.51-1,1.29-1.84,2.26-2.4,.94-.53,2-.81,3.08-.81,.62,0,1.25,.06,1.86,.18,.55,.11,1.09,.31,1.58,.57l-.02-3.61c.02-.3-.04-.59-.18-.86-.19-.23-.47-.36-.76-.39l-.53-.11v-.28l5.04-1.25,.31,.25-.09,3.88,.07,13.57c-.01,.31,.06,.62,.2,.9,.16,.26,.43,.43,.72,.48l.25,.08v.28l-4.74,.33-.26-1c-.53,.35-1.1,.62-1.7,.82-.69,.21-1.4,.32-2.12,.32h0Zm1.6-1.03c.77,0,1.52-.25,2.13-.7l-.05-11.02c-.62-.42-1.36-.65-2.11-.65-.98,.06-1.85,.66-2.27,1.55-.72,1.51-1.04,3.18-.92,4.85-.12,1.6,.19,3.21,.91,4.64,.48,.83,1.36,1.34,2.31,1.34h0Z"/><path id="p" class="ae" d="M191.12,33.58c1.12-.04,2.22,.22,3.21,.75,.86,.48,1.57,1.2,2.04,2.07,.49,.92,.73,1.94,.72,2.98,0,.21,0,.43-.03,.65-.01,.2-.05,.4-.11,.59l-8.6,.04c-.11,1.58,.29,3.15,1.13,4.48,.8,.94,1.99,1.44,3.22,1.35,.8,.03,1.61-.13,2.34-.47,.64-.35,1.2-.81,1.66-1.36l.29,.26c-.56,1.02-1.37,1.88-2.37,2.49-1.08,.63-2.31,.94-3.56,.91-1.27,.03-2.52-.27-3.64-.86-1.06-.58-1.92-1.45-2.49-2.51-.63-1.21-.94-2.56-.91-3.92-.05-1.41,.3-2.81,1.02-4.03,.64-1.07,1.56-1.94,2.66-2.54,1.05-.57,2.22-.88,3.42-.88Zm-.08,.35c-.52-.01-1.03,.17-1.42,.51-.48,.49-.79,1.12-.91,1.79-.25,1.19-.37,2.4-.34,3.62l4.93-.02c.23-1.51,.14-3.05-.26-4.53-.27-.87-1.1-1.43-2-1.37h0Z"/><path id="q" class="ae" d="M204.36,48.12l-6.4-17.55c-.11-.35-.3-.66-.55-.93-.26-.24-.58-.42-.93-.51l-.71-.23v-.3l8.5-.04v.3l-.91,.27c-.45,.12-.7,.33-.75,.62-.04,.37,0,.74,.14,1.09l4.43,12.93,4.33-13c.14-.36,.21-.74,.22-1.12-.01-.3-.25-.5-.7-.62l-.77-.2v-.3l4.13-.02v.3l-.79,.24c-.32,.07-.61,.25-.79,.52-.18,.3-.33,.62-.44,.96l-5.81,17.58h-2.18s0,0,0,0Z"/><path id="r" class="ae" d="M213.8,48.14v-.28l.39-.12c.31-.07,.58-.25,.77-.51,.15-.27,.22-.59,.21-.9l-.04-8.76c.02-.31-.06-.62-.22-.88-.2-.23-.47-.37-.77-.4l-.39-.08v-.28l5.11-1.68,.28,.28-.06,3.97,.04,7.83c-.01,.31,.06,.63,.21,.9,.18,.25,.45,.43,.75,.5l.28,.08v.28l-6.54,.03Zm3.22-15.35c-.59,.02-1.17-.19-1.61-.59-.85-.8-.89-2.14-.09-2.99,.03-.03,.05-.05,.08-.08,.44-.4,1.01-.61,1.6-.6,.59-.02,1.16,.19,1.6,.58,.85,.82,.87,2.18,.05,3.03-.01,.01-.02,.02-.03,.03-.43,.4-1,.62-1.59,.61h0Z"/><path id="s" class="ae" d="M228.82,33.75c1.12-.04,2.22,.22,3.2,.75,.86,.48,1.57,1.2,2.05,2.07,.49,.92,.73,1.94,.72,2.98,0,.21,0,.43-.03,.65-.01,.2-.05,.4-.11,.59l-8.6,.04c-.11,1.58,.29,3.15,1.13,4.48,.8,.94,1.99,1.45,3.22,1.35,.8,.03,1.61-.13,2.33-.47,.64-.35,1.2-.81,1.67-1.36l.29,.26c-.56,1.03-1.37,1.89-2.37,2.49-1.08,.63-2.31,.94-3.56,.91-1.27,.03-2.52-.27-3.64-.86-1.06-.58-1.92-1.45-2.49-2.51-.63-1.21-.94-2.56-.91-3.92-.05-1.41,.3-2.81,1.02-4.03,.64-1.07,1.56-1.94,2.66-2.54,1.05-.57,2.22-.88,3.42-.88Zm-.08,.58c-.52,0-1.03,.17-1.43,.51-.48,.49-.79,1.12-.91,1.79-.25,1.19-.37,2.4-.34,3.62l4.93-.02c.23-1.51,.14-3.05-.26-4.53-.27-.87-1.1-1.43-2-1.37h0Z"/><path id="t" class="ae" d="M236.5,48.02v-.28l.39-.11c.31-.07,.58-.25,.76-.51,.15-.27,.22-.58,.2-.89l-.04-8.7c.02-.31-.06-.61-.21-.88-.2-.23-.47-.37-.77-.4l-.39-.08v-.28l5.08-1.67,.28,.28-.06,3.95,.04,7.79c-.01,.31,.06,.62,.21,.89,.18,.25,.44,.43,.74,.5l.28,.08v.28l-6.5,.03h0Zm3.2-15.26c-.59,.02-1.16-.19-1.6-.59-.84-.79-.89-2.12-.09-2.97,.02-.03,.05-.05,.08-.08,.44-.39,1.01-.61,1.6-.59,.58-.02,1.15,.19,1.59,.57,.84,.82,.86,2.17,.04,3.01,0,.01-.02,.02-.03,.03-.43,.4-1,.62-1.58,.61h0Z"/><path id="u" class="ae" d="M244.6,48.02v-.28l.33-.11c.62-.17,1.04-.75,.99-1.39l-.07-14.86c.02-.3-.06-.6-.23-.85-.2-.22-.48-.37-.78-.43l-.36-.08v-.28l5.07-1.22,.33,.25-.09,3.89,.05,9.5c0,.69,.01,1.37,.03,2.04,.01,.67,.02,1.35,.03,2.01-.01,.32,.07,.63,.23,.9,.18,.25,.45,.43,.75,.51l.36,.08v.28l-6.64,.03h0Z"/><path id="v" class="ae" d="M252.54,47.98v-.28l.33-.11c.62-.17,1.04-.75,.99-1.39l-.07-14.86c.02-.3-.06-.6-.23-.85-.2-.22-.48-.37-.78-.43l-.36-.08v-.28l5.07-1.22,.33,.25-.09,3.89,.05,9.5c0,.69,.01,1.37,.03,2.04,.01,.67,.02,1.35,.03,2.01-.01,.32,.07,.63,.23,.9,.18,.25,.45,.43,.75,.51l.36,.08v.28l-6.64,.03h0Z"/><path id="w" class="ae" d="M268.02,33.75c1.11-.04,2.22,.22,3.2,.75,.86,.48,1.57,1.2,2.05,2.07,.49,.92,.73,1.94,.72,2.98,0,.21,0,.43-.03,.65-.01,.2-.05,.4-.11,.59l-8.59,.04c-.11,1.58,.29,3.15,1.13,4.48,.8,.94,1.99,1.44,3.22,1.35,.8,.03,1.61-.13,2.33-.47,.64-.34,1.2-.81,1.67-1.36l.29,.26c-.56,1.02-1.37,1.88-2.37,2.49-1.08,.63-2.31,.94-3.56,.91-1.27,.03-2.52-.27-3.64-.86-1.06-.58-1.92-1.45-2.49-2.51-.63-1.21-.94-2.56-.91-3.92-.05-1.41,.3-2.81,1.02-4.03,.64-1.07,1.56-1.94,2.66-2.54,1.05-.57,2.22-.88,3.41-.88h0Zm-.08,.58c-.52-.01-1.03,.17-1.43,.51-.48,.49-.79,1.12-.91,1.79-.25,1.19-.37,2.4-.34,3.62l4.93-.02c.23-1.51,.14-3.05-.26-4.53-.27-.87-1.1-1.43-2-1.37h0Z"/><path id="x" class="ae" d="M4.07,29.09c.17,.19,.46,.22,.66,.06,5.62-2.97,11.84-4.44,18.03-5.72,.8-.27,.83-.71-.05-.68-4.08-.07-8.16,.08-12.23,.43-5.09-6,6.93-1.84,7.82-4.3,.13-.61-.15-.5-1.61-.45-3.45,.04-6.86-.77-9.93-2.35-.22-.17-1.62-.75-.99-1.08,.19-.07,.45-.26,.47-.45,.03-.47,0-.95,0-1.42,.02-.25,.34,0,.46-.17,.11-.4-.16-.86-.27-1.26-.14-.43,.64-.44,.97-.62,.28-.1,.38-.53-.36-.56C5.82,7.33,1.11,6.52,.04,10.79c-.21,1.41,.52,2.79,1.8,3.41,.27,.13-.13,.43-.23,.64C-1.39,19.29,.1,25.74,4.07,29.09"/><path id="y" class="af" d="M76.44,9.3s.08,.01,.12,.02l.14-.06c-.84-.99-1.3-2-.63-3.24h.18c.43,.85,1.11,1.55,1.95,2,.36,.19,.71,.4,1.05,.61-.11-1.02-.1-2.25,2-1.49,.19,.09,.41,.08,.6-.02,.31-.31,.58-.65,.86-.98,.17-.16,.24,.21,.42,.17,.41-.14,.45-1.37,.91-1.17,.23,.1,.46,.2,.72,.3,.26,.1,.58-.13,.1-.6-.06-.06-.08-.15-.04-.23,.76-1.61,.07-3.54-1.54-4.29-1.12-.53-2.45-.37-3.41,.41-1.01,.84-1.36,2.24-.85,3.45,.08,.18-.11,.19-.29,.24-.02,0-1.06,.08-1.88,.14-.6,0-1.2-.02-1.79-.03-1.33,0-2.66,.13-3.96,.36-.62,.1-1.24,.25-1.86,.38-.41,.08-.71,.44-.7,.86-.18,.89-2.26,.74-1.67,3.18,.21,.62,.65,1.15,1.23,1.46,.69-.38,1.41-.69,2.17-.91,1.99-.65,4.1-.85,6.17-.57h0Z"/><path id="z" class="ag" d="M64.32,15.56c.18-.02,.36-.03,.55-.05-.19,.02-.37,.04-.55,.05"/><path id="aa" class="ag" d="M62.86,16.18c-.16,.04-.33,.08-.48,.11,.15-.03,.32-.07,.48-.11"/><path id="ab" class="ag" d="M65.29,15.46l-.08,.03,.08-.03"/><path id="ac" class="af" d="M101.17,20.26c.99,.86,2.98-.47,2.94-1.77,0-.09-.03-.19-.07-.27-1.57-2.38-3.27-4.68-5.09-6.87-.62-.68-1.32-1.3-2.08-1.83-.7-.53-1.45-1.01-2.23-1.42-.84-.45-1.52-1.15-1.95-2h-.18c-.67,1.24-.21,2.25,.63,3.24l-.14,.06-.12-.02c-2.07-.28-4.18-.08-6.17,.57-1.38,.41-2.71,.94-4,1.58,1.67,2.26,3.73,4.34,4.96,6.87,.04,1.24-1.86,2.64-2.94,1.77-.48-.72-1.23-1.2-2.08-1.34h0c-.96-.3-2.11-.67-3.1-.99-.99-.28-1.87-.86-2.52-1.65-.3-.1-.65-.15-.96-.21-1.47,1.48-2.69,3.19-3.6,5.06-.21,.29-.34,.63-.39,.99,.04,1.68,.1,3.38-.02,5.06-.13,1.25-.49,2.47-1.06,3.6-.04,.12-.17,.25-.15,.38,.23,.26,.51,.52,.76,.78,.74,.75,1.49,1.52,2.25,2.29l.03,.03c2.1,2.14,4.23,4.26,6.31,6.42,.48,.5,.95,1,1.43,1.5,.03-.45-.08-.9-.3-1.29-1.14-1.97-2.05-4.07-2.73-6.24-.02-.07-.25-.84-.47-1.48,2.45,.75,4.83,1.68,7.13,2.8,4.66,2.18,8.85,5.25,12.35,9.04,.15,.15,.34,.24,.55,.27,.55,.05,.96,.54,.91,1.09,0,.1-.03,.2-.07,.29-.31,.55-.12,1.26,.44,1.57,.11,.06,.24,.11,.36,.13,.96,.27,1.97,.26,2.92-.04,.33-.09,.48-.28,.23-.6-.43-.55-.84-1.13-1.31-1.64-1.65-1.79-3.3-3.57-4.99-5.32-2.08-2.16-4.21-4.28-6.31-6.42-1.02-1.04-2.04-2.09-3.02-3.08-.02-.02-.02-.05-.01-.08,.21-.44,.41-.81,.56-1.2,.44-1.17,.69-2.4,.71-3.65,.01-1.28,.04-2.57-.03-3.85-.04-.35,.04-.71,.24-1,.06-.08,.09-.18,.14-.27,.91-1.88,2.13-3.59,3.6-5.06,.24,.05,.48,.09,.72,.14,.05,.01,.23,.07,.24,.07,.54,.61,1.19,1.11,1.92,1.47,.62,.18,2.44,.78,3.71,1.17h0c.78,.12,1.48,.54,1.93,1.19l.15,.16h0Z"/><path id="ad" class="ae" d="M81.61,42.09c-.47-.5-.95-1.01-1.43-1.5-2.08-2.16-4.21-4.28-6.31-6.42l-.03-.03c-.76-.77-1.51-1.54-2.25-2.29-.25-.26-.52-.52-.76-.78-.01-.13,.11-.26,.15-.38,.56-1.13,.92-2.35,1.06-3.6,.12-1.68,.06-3.38,.02-5.06,.05-.36,.18-.7,.39-.99,.91-1.87,2.13-3.58,3.6-5.06,.31,.06,.66,.12,.96,.21,.65,.8,1.54,1.37,2.53,1.65,1,.31,2.14,.69,3.1,.98h0c.85,.15,1.6,.63,2.08,1.35,1.08,.87,2.98-.53,2.94-1.77-1.23-2.53-3.29-4.61-4.96-6.87-.07-.09-.14-.18-.2-.28-.62-.68-1.32-1.3-2.08-1.83-.38-.29-.77-.56-1.18-.81-.34-.21-.69-.42-1.05-.61-.84-.45-1.52-1.15-1.95-2h-.18c-.67,1.24-.21,2.25,.63,3.24l-.14,.06-.12-.02c-2.07-.28-4.18-.08-6.17,.57-.75,.22-1.48,.53-2.17,.91-.49,.26-.99,.54-1.6,.85-1.39,.92-4.22,2.66-5.97,2.79-.92-.02-1.83-.15-2.72-.38-.48-.17-.49,.13-.15,.35,1.79,1.32,5.2,1.44,7.63,1.08l-.09,.03c-.77,.27-1.55,.5-2.35,.69-.16,.04-.33,.08-.48,.11-3.4,.7-5.71,.97-8.96,1.36-2.67,.36-5.23-.71-7.85-1.04-5.88-.99-12.7,.48-14.92,5.25,8.14-.44,17.3-.85,25.09,.04-15.82-.13-32.06,1.15-46.91,7.03-4.19,1.69-7.68,4.97-7.68,9.68,0,5.49,4.46,9.94,9.95,9.94,4.15,0,7.86-2.57,9.31-6.46,3.15-.5,3.66-2.04,5.43-4.27,2.5-2.79,5.98-4.36,9.42-5.61,1.4,2.13,2.54,3.79,2.93,6.26,0,.48,.23,.92,.63,1.19,2.19,1.39,4.25,2.96,6.16,4.71,.49,.6,1.17,1.02,1.93,1.19,.49,.06,.7,.68,.52,1.16-.68,2.1,2.28,1.95,3.56,1.55,.65-.18,.71-.37,.24-.87-2.7-3.13-5.75-5.94-9.09-8.39-.57-.37-.57-2.2-.74-2.92-.24-1.77-.33-3.55-.26-5.33,4.09-.35,8.2-.21,12.25,.44,.27,.04,.52,.15,.71,.34,2.61,2.88,5.52,5.33,7.31,8.88,.04,.34-2.62,.09-2.98,.07-1.07-.1-2.1-.51-2.96-1.16-.24-.22-.55-.34-.88-.34-.76,0-1.12-.54-.95-1.3,.19-2.11-2.83-1.42-3.99-.84-.4,.17-.42,.38-.08,.65,1.44,1.21,2.9,2.41,4.36,3.6,.48,.46,1.07,.81,1.71,.99,2.2,.48,4.4,.97,6.59,1.48,.46,.14,.97,.03,1.33-.29,1.14-.63,1.56-2.06,.93-3.21,0,0,0-.01,0-.02-1.03-1.76-1.83-3.64-2.4-5.6-.02-.07-.25-.84-.47-1.48,2.45,.75,4.83,1.68,7.13,2.8,3.1,1.5,6.02,3.35,8.69,5.52,1.02,.84,1.99,1.74,2.9,2.7,.25,.27,.51,.54,.75,.81,.15,.15,.34,.24,.55,.27,.55,.05,.96,.54,.91,1.09,0,.1-.03,.2-.07,.29-.31,.55-.12,1.26,.44,1.57,.11,.06,.24,.11,.36,.13,.96,.27,1.97,.26,2.92-.04,.33-.09,.48-.28,.23-.6-.43-.55-.84-1.13-1.31-1.64-1.18-1.28-2.37-2.55-3.56-3.82m-55.16-9.61c-1.85,2.14-2.99,6.52-5.5,7.62,.02-.13,.03-.25,.04-.38,.36-3.14-.8-6.27-3.12-8.42,1.78-3.33,9.04-5.59,9.04-5.6,.67-.21,1.35-.37,2.04-.47,.62-.04,1.15,.07,1.21,.53-.01,1.27,.62,2.5,.67,3.7-1.08,1.53-3.1,1.82-4.38,3.03h0Z"/></svg>