<svg id="a" xmlns="http://www.w3.org/2000/svg" viewBox="0 0 77.38 68.33"><defs><style>.k{fill:#1d1d1b;}</style></defs><g id="b"><path id="c" class="k" d="M55.55,58.86l-54.73-.1-.82-.81V.82L.82,0H67.04l.82,.82,.1,45.54c.1,.3,1.82,.56,2.34,.75,5.66,2.15,8.51,8.48,6.37,14.14-2.15,5.66-8.48,8.51-14.14,6.37-3.75-1.42-6.43-4.78-6.98-8.76M65.03,2.82H2.83v7.82h62.2V2.82Zm0,10.91H2.83V55.66l.27,.27H55.57c.68-4.92,4.54-8.78,9.46-9.46V13.74Zm9.38,43.65c0-4.4-3.57-7.98-7.97-7.98s-7.98,3.57-7.98,7.98,3.57,7.97,7.98,7.97h0c4.4,0,7.97-3.57,7.97-7.97"/><path id="d" class="k" d="M9.51,36.33c3.44-.28,6.89-.3,10.33-.05,1.45,.12,1.95,.42,2.09,1.91,.18,2.55,.18,5.1,0,7.65-.14,1.27-.7,1.62-1.9,1.74-3.4,.23-6.8,.23-10.2,0-1.32-.12-1.75-.59-1.9-1.92-.19-2.48-.19-4.98,0-7.46,.12-1.08,.48-1.68,1.59-1.87m9.32,3.05h-7.82v5.09h7.82v-5.09Z"/><path id="e" class="k" d="M47.52,36.34c3.44-.28,6.89-.3,10.33-.06,1.65,.15,1.96,.69,2.09,2.27,.17,2.36,.17,4.74,0,7.1-.14,1.27-.63,1.8-1.9,1.92-3.4,.23-6.8,.24-10.2,0-1.04-.1-1.77-.42-1.91-1.55-.2-2.78-.2-5.58,.01-8.36,.14-.87,.8-1.2,1.58-1.33m9.32,3.04h-7.82v5.09h7.82v-5.09Z"/><path id="f" class="k" d="M9.14,19.78c3.53,.24,7.79-.45,11.24-.04,.83,.06,1.48,.72,1.55,1.55,.19,2.61,.19,5.22,0,7.83-.11,1.17-.34,1.62-1.54,1.73-3.64,.25-7.29,.25-10.93,0-1.14-.1-1.41-.62-1.54-1.74-.18-2.48-.18-4.97,0-7.45,.09-.87,.31-1.59,1.22-1.87m9.69,3.05h-7.82v5.09h7.82v-5.09Z"/><path id="g" class="k" d="M47.15,19.78c3.53,.24,7.79-.45,11.24-.04,1.34,.16,1.47,1.14,1.55,2.27,.15,2.3,.15,4.61,0,6.92-.12,1.19-.29,1.81-1.54,1.92-3.52,.32-7.53-.26-11.11,0-.96-.06-1.26-.68-1.36-1.55-.2-2.66-.2-5.34,0-8.01,.07-.7,.55-1.3,1.22-1.5m9.69,3.05h-7.82v5.09h7.82v-5.09Z"/><path id="h" class="k" d="M27.44,47.15c-.24-.26-.39-.59-.43-.94-.21-2.85-.21-5.71,0-8.56,.13-.97,1.04-1.28,1.91-1.36,3.33-.23,6.68-.23,10.02,0,1.03,.1,1.77,.42,1.91,1.55,.21,2.79,.21,5.59,0,8.38-.16,.74-.79,1.29-1.55,1.36-3.52,.25-7.04,.25-10.56,0-.47-.01-.92-.16-1.3-.43m2.49-2.67h8v-5.09h-8v5.09Z"/><path id="i" class="k" d="M28.24,19.78c3.47,.23,7.68-.45,11.06-.05,.86,.1,1.44,.47,1.54,1.36,.2,2.73,.2,5.47,0,8.2-.07,.75-.32,1.44-1.18,1.55-3.47,.45-7.9-.36-11.48,0-.67-.11-1.17-.69-1.18-1.37-.21-2.79-.21-5.59,0-8.37,.1-.84,.47-1.06,1.23-1.32m1.69,8.14h8v-5.1h-8v5.1Z"/><path id="j" class="k" d="M67.94,55.93c1.26,.18,3.16-.55,3.89,.74,.4,.73,.13,1.64-.59,2.04-.1,.05-.2,.1-.31,.13-1.57,.12-3.15,.12-4.71,0-.69-.07-1.21-.65-1.2-1.34-.12-1.84-.07-3.68,.15-5.51,.6-1.41,2.77-.48,2.77,.41v3.55Z"/></g></svg>