<svg id="a" xmlns="http://www.w3.org/2000/svg" viewBox="0 0 29.46 29.46"><path id="b" d="M26.3,0H3.16C1.41,0,0,1.41,0,3.16V26.3c0,1.74,1.41,3.16,3.16,3.16H26.3c1.74,0,3.16-1.41,3.16-3.16V3.16c0-1.74-1.41-3.16-3.16-3.16ZM8.35,23.18c-.35,.63-1.15,.86-1.79,.51s-.86-1.15-.51-1.79c0-.01,.01-.02,.02-.03l.94-1.62c.94-.35,2-.05,2.6,.75l-1.26,2.19Zm9.13-3.54H5.52c-.73,0-1.32-.59-1.32-1.32s.59-1.32,1.32-1.32h3.35l4.3-7.44-1.35-2.33c-.4-.61-.23-1.42,.38-1.82,.61-.4,1.42-.23,1.82,.38,.03,.04,.05,.08,.07,.12l.59,1.01,.59-1.01c.36-.63,1.17-.85,1.8-.48,.63,.36,.85,1.17,.48,1.8h0l-5.64,9.77h4.08c.99,.06,1.75,.91,1.69,1.9-.01,.25-.08,.5-.2,.73Zm6.45,0h-1.91l1.29,2.23c.37,.62,.17,1.43-.45,1.8-.62,.37-1.43,.17-1.8-.45,0-.01-.01-.02-.02-.03-2.16-3.74-3.79-6.55-4.87-8.42-.89-1.42-.69-3.26,.47-4.46,.86,1.49,2.15,3.73,3.87,6.71h3.42c.73,0,1.32,.59,1.32,1.32s-.59,1.32-1.32,1.32h0Z"/></svg>