<svg viewBox="0 0 33.8 32"><path d="M25.1,26.9c1.6-1,2.9-2.4,3.8-4.2h4.9c-1.1,3-3,5.3-5.5,7c-2.6,1.6-5.5,2.5-8.9,2.5c-3.5,0-6.7-1-9.4-2.9
		c-2.7-1.9-4.6-4.6-5.6-7.8H0v-2.9h3.7c-0.1-0.8-0.1-1.6-0.1-2.3c0-0.7,0-1.5,0.1-2.2H0V11h4.3C5,8.8,6,6.9,7.5,5.2
		c1.5-1.7,3.2-3,5.2-3.9S16.9,0,19.3,0c3.4,0,6.4,0.8,8.9,2.5c2.5,1.7,4.4,4,5.5,7h-4.9c-0.9-1.9-2.1-3.3-3.7-4.3
		c-1.6-1-3.6-1.5-5.8-1.5c-2.5,0-4.7,0.6-6.6,1.9C10.8,7,9.5,8.7,8.7,11h10.6v2.8H8c-0.1,0.7-0.1,1.5-0.1,2.2c0,0.9,0.1,1.7,0.2,2.3
		h11.3v2.9H8.7c0.9,2.2,2.2,4,4.1,5.2c1.9,1.2,4,1.9,6.5,1.9C21.6,28.4,23.5,27.9,25.1,26.9z"/>
</svg>