<svg id="a" xmlns="http://www.w3.org/2000/svg" viewBox="0 0 66.6 78.74"><g id="b"><path id="c" d="M33.74,.17c8.69,1.03,8.37,14.3-.53,14.71-9.54,.44-10.29-13.59-1.46-14.71,.66-.06,1.33-.06,1.99,0m4.11,7.36c0-2.79-2.26-5.05-5.05-5.06-2.79,0-5.05,2.26-5.06,5.05,0,2.79,2.26,5.05,5.05,5.06h0c2.79,0,5.05-2.26,5.05-5.05h0"/><path id="d" d="M32.76,15.02c-3.89,.12-7.14-2.93-7.29-6.82-.31-3.62,1.74-7.58,6.26-8.16,.67-.06,1.35-.06,2.02,0,1.96,.18,3.74,1.18,4.93,2.74,1.06,1.45,1.59,3.22,1.51,5.02,.05,3.91-3.07,7.12-6.98,7.2-.15,0-.3,.01-.45,.01m-.03-14.77c-.32,0-.65,.01-.97,.04-4.37,.56-6.34,4.39-6.04,7.89,.3,3.92,3.73,6.85,7.65,6.55,3.65-.28,6.49-3.28,6.57-6.94,.3-3.77-2.46-7.1-6.22-7.5-.33-.03-.66-.05-.99-.04m.07,12.45c-2.86,0-5.18-2.32-5.18-5.18,0-2.86,2.32-5.18,5.18-5.17,2.86,0,5.18,2.32,5.18,5.18,0,2.86-2.32,5.17-5.18,5.18m0-10.1c-2.72,0-4.93,2.21-4.93,4.93,0,2.72,2.21,4.93,4.93,4.92,2.72,0,4.93-2.21,4.93-4.93,0-2.72-2.21-4.92-4.93-4.93"/><path id="e" d="M14.94,63.85c6.95,6.8,17.98,7.06,25.24,.59,2.32-2.07,3.14-4.97,6.83-4.68,2.58,.26,4.46,2.56,4.21,5.14-.23,2.8-5.15,7.12-7.4,8.69-10.35,7.24-24.27,6.59-33.91-1.57-.58-.49-2.64-2.28-2.81-2.86-.26-.57,0-1.24,.56-1.5,.26-.12,.56-.13,.83-.04,.59,.13,2.19,2.04,2.8,2.57,9.77,8.32,24.18,8.12,33.72-.46,.96-.87,3.69-3.67,3.88-4.86,.22-1.32-.67-2.57-1.99-2.79-.74-.12-1.49,.1-2.04,.61-1.17,1.02-2.2,2.69-3.52,3.83-8.7,7.37-21.73,6.29-29.1-2.41-7.3-8.62-6.32-21.5,2.2-28.92,1.51-1.3,3.31-1.99,4.74-3.07,1.09-.77,1.35-2.27,.58-3.36-.49-.7-1.32-1.09-2.18-1.01-1.04,.06-3.48,1.68-4.41,2.34C3.12,37.21-.4,50.49,4.79,61.66c.51,1.09,2.78,3.89,.9,4.48-1.05,.33-1.49-.71-1.93-1.46C-3.98,51.4,1.09,33.17,14.88,26.29c2.9-1.45,6.34-1.02,7.41,2.41,1.33,4.27-2.28,5.31-4.91,7.14-8.3,5.83-10.31,17.28-4.49,25.58,.61,.87,1.29,1.68,2.04,2.43"/><path id="f" d="M27.92,78.74c-.44,0-.89-.01-1.34-.03-6.16-.28-12.06-2.6-16.76-6.59-.11-.09-2.64-2.23-2.85-2.92-.17-.47-.08-1,.24-1.38,.34-.33,.83-.46,1.29-.32,.78,.45,1.47,1.05,2.02,1.76,.34,.36,.63,.67,.83,.83,4.58,3.94,10.42,6.1,16.46,6.08h.4c6.18-.08,12.11-2.4,16.7-6.53,.92-.83,3.65-3.63,3.84-4.79,.18-.96-.28-1.92-1.14-2.39-.87-.49-1.95-.36-2.68,.31-.58,.54-1.12,1.13-1.61,1.76-.58,.74-1.22,1.44-1.92,2.07-8.7,7.48-21.82,6.48-29.3-2.23-7.48-8.7-6.48-21.82,2.23-29.3,.85-.69,1.76-1.29,2.72-1.8,.7-.38,1.38-.81,2.03-1.27,.84-.6,1.18-1.69,.83-2.66-.35-.97-1.32-1.58-2.35-1.48-.84,.04-2.8,1.23-4.35,2.32C3.23,37.28-.27,50.5,4.9,61.61c.1,.22,.28,.5,.48,.84,.63,1.04,1.41,2.33,1.1,3.17-.13,.32-.41,.56-.74,.64-1.04,.33-1.53-.56-1.93-1.27-.05-.09-.1-.17-.14-.25C-.15,58.06-1.03,50.1,1.22,42.74c2.06-7.16,6.98-13.15,13.6-16.57,1.56-.87,3.42-1.03,5.1-.42,1.22,.54,2.14,1.61,2.49,2.9,1.12,3.59-1.21,4.99-3.47,6.34-.5,.3-1.01,.6-1.48,.93-8.25,5.79-10.24,17.17-4.45,25.41,.6,.86,1.28,1.67,2.03,2.41,6.89,6.79,17.87,7.05,25.07,.59,.61-.57,1.18-1.2,1.7-1.86,1.29-1.57,2.52-3.06,5.22-2.85,1.23,.1,2.36,.68,3.16,1.62,.86,1.02,1.28,2.33,1.17,3.65-.24,2.85-5.22,7.23-7.45,8.78-4.68,3.28-10.25,5.05-15.96,5.04m-19.79-11.04c-.27-.01-.53,.1-.72,.29-.26,.32-.33,.75-.19,1.14,.79,1.06,1.72,2,2.77,2.8,9.59,8.13,23.45,8.77,33.75,1.57,2.21-1.54,7.12-5.83,7.35-8.6,.1-1.26-.3-2.5-1.11-3.47-.75-.89-1.82-1.45-2.98-1.54-2.57-.21-3.7,1.17-5,2.76-.53,.67-1.1,1.3-1.73,1.89-7.54,6.85-19.19,6.29-26.04-1.25-3.47-3.82-5.18-8.91-4.71-14.05,.46-5.44,3.32-10.39,7.8-13.51,.48-.33,1-.64,1.5-.94,2.28-1.36,4.43-2.65,3.36-6.05-.33-1.22-1.19-2.23-2.35-2.75-1.61-.58-3.4-.43-4.89,.42-6.56,3.38-11.44,9.32-13.48,16.41-2.23,7.29-1.36,15.18,2.42,21.8,.05,.08,.1,.17,.15,.25,.39,.7,.79,1.42,1.64,1.15,.26-.06,.48-.24,.59-.49,.27-.72-.51-2.01-1.07-2.95-.21-.34-.38-.63-.49-.86-5.22-11.22-1.69-24.57,8.4-31.74,.77-.54,3.35-2.3,4.48-2.36h.16c1.4-.04,2.56,1.06,2.6,2.46,.02,.85-.38,1.65-1.07,2.14-.66,.47-1.34,.9-2.05,1.29-.95,.5-1.85,1.1-2.68,1.78-7.32,6.35-9.23,16.95-4.6,25.46,5.51,9.94,18.04,13.52,27.97,8.01,1.19-.66,2.32-1.44,3.36-2.33,.69-.63,1.32-1.31,1.89-2.04,.5-.64,1.05-1.24,1.64-1.79,.82-.74,2.01-.87,2.97-.34,.95,.52,1.46,1.58,1.27,2.65-.2,1.24-2.94,4.05-3.92,4.93-4.63,4.17-10.63,6.52-16.86,6.6h-.4c-6.1,.02-12-2.16-16.62-6.15-.2-.18-.5-.49-.85-.85-.54-.66-1.18-1.23-1.9-1.69-.11-.02-.22-.04-.33-.04"/><path id="g" d="M54.97,43.99c4.95,.66,6,7.1,7.56,10.84,.17,.61-.19,1.23-.8,1.4-.51,.14-1.04-.09-1.29-.54-1.64-3.04-1.91-9.01-6.23-9.41-4.77-.44-10.24,.42-15.04,.01-.72-.06-1.5-.15-1.61-.99-.45-3.43,.36-7.82,0-11.35,.07-.78,.81-.93,1.46-.99,4.52-.42,9.64,.36,14.23-.03,1.29-.35,2.05-1.68,1.7-2.97-.24-.87-.94-1.54-1.83-1.73-4.53-.34-9.63,.41-14.1,0-2.16-.2-1.32-1.81-1.45-3.45-.54-6.52-9.03-6.26-9.51-.16-.32,4.14,.28,8.67-.03,12.84-.23,.6-.91,.91-1.51,.67-.41-.16-.69-.52-.74-.96,.22-4.14-.32-8.62-.01-12.71,.18-3.93,3.5-6.98,7.44-6.8,.14,0,.28,.02,.43,.03,4.11,.45,6.58,4.27,6.25,8.23h13.41c2.58,.37,4.38,2.76,4.01,5.34-.2,1.43-1.05,2.69-2.3,3.41-.44,.25-.91,.45-1.4,.59h-13.73v8.73h15.1Z"/><path id="h" d="M61.44,56.39c-.45-.02-.87-.25-1.11-.64-.49-1.01-.9-2.06-1.21-3.14-.94-2.92-1.92-5.94-4.92-6.21-2.52-.16-5.05-.16-7.58,0-2.48,.16-4.97,.16-7.46,.01-.68-.06-1.6-.14-1.73-1.1-.18-1.95-.18-3.92-.02-5.88,.14-1.82,.15-3.66,.02-5.48,.09-.99,1.13-1.09,1.57-1.13,2.4-.16,4.8-.17,7.2-.02,2.34,.14,4.68,.14,7.02,0,1.22-.36,1.92-1.63,1.57-2.85-.23-.81-.89-1.42-1.71-1.6-2.27-.12-4.54-.12-6.81,.02-2.42,.15-4.85,.14-7.27-.02-1.74-.16-1.66-1.23-1.59-2.37,.04-.4,.04-.8,.02-1.2-.27-3.25-2.51-4.7-4.63-4.7h0c-2.52,0-4.57,2.02-4.62,4.54-.12,2.15-.13,4.3-.02,6.44,.11,2.13,.11,4.27,0,6.4-.13,.55-.64,.92-1.21,.87-.66,0-1.21-.49-1.3-1.14,.1-1.98,.04-4.04-.03-6.04-.11-2.23-.11-4.47,.01-6.7,.14-2.06,1.11-3.97,2.68-5.31,1.48-1.23,3.4-1.8,5.32-1.57,4,.58,6.82,4.22,6.37,8.23h13.28c2.65,.37,4.5,2.82,4.14,5.47-.2,1.47-1.08,2.77-2.36,3.52-.46,.26-.95,.46-1.46,.6h-13.6v8.48h14.99c4.05,.54,5.56,4.95,6.77,8.49,.3,.88,.58,1.7,.89,2.43v.03c.14,.62-.19,1.25-.77,1.5-.14,.06-.28,.08-.43,.08m-10.37-10.37c1.08,0,2.14,.03,3.16,.13,3.17,.29,4.22,3.53,5.14,6.38,.3,1.06,.7,2.1,1.18,3.09,.25,.43,.77,.62,1.24,.45,.47-.21,.72-.71,.62-1.22-.3-.73-.59-1.56-.88-2.43-1.25-3.65-2.66-7.79-6.56-8.32h-15.22v-8.98h13.85c.47-.14,.92-.33,1.34-.57,2.19-1.28,2.93-4.1,1.65-6.29-.71-1.21-1.93-2.03-3.32-2.23h-13.53v-.14c.36-4.12-2.34-7.68-6.13-8.1-1.85-.22-3.7,.33-5.13,1.52-1.52,1.29-2.46,3.15-2.59,5.14-.12,2.22-.13,4.45-.01,6.68,.07,2,.13,4.07,.03,6.03,.09,.52,.53,.9,1.06,.9,.44,.04,.84-.24,.95-.66,.11-2.12,.11-4.24,0-6.35-.11-2.16-.11-4.32,.02-6.47,.06-2.65,2.22-4.76,4.87-4.77h0c2.23,0,4.59,1.52,4.88,4.93,.02,.41,.02,.82-.02,1.24-.08,1.14-.14,1.96,1.36,2.1,2.41,.16,4.83,.17,7.24,.02,2.28-.13,4.57-.14,6.86-.01,1.38,.28,2.26,1.63,1.98,3-.19,.94-.9,1.69-1.82,1.94-2.36,.15-4.72,.15-7.08,.01-2.39-.15-4.78-.14-7.17,.02-.66,.06-1.29,.21-1.35,.88,.13,1.83,.12,3.67-.02,5.49-.16,1.94-.15,3.89,.02,5.83,.09,.71,.71,.82,1.5,.88,2.47,.15,4.95,.14,7.42-.01,1.47-.06,2.98-.13,4.45-.13"/><path id="i" d="M26.49,40.65c.6-.24,1.28,.04,1.53,.64,0,.02,.01,.03,.02,.05,.3,1.32-.1,3.68,.04,5.17,.14,2.32,1.9,4.22,4.21,4.53,5.26,.48,11.26-.44,16.56,0,7.53,.61,7.8,10.59,10.63,16.04,.88,1.69,2.95,2.22,4.17,.58,.48-.64,.63-1.46,.39-2.23-.31-1.61-2.05-4.46-2.09-5.89s1.55-1.71,2.24-.39c.86,1.93,1.59,3.91,2.18,5.94,.59,2.56-1,5.11-3.55,5.7-2.18,.51-4.42-.58-5.38-2.6-1.86-3.69-2.74-8.86-4.75-12.41-.84-1.5-2.42-2.43-4.14-2.45-5.31-.42-11.28,.47-16.56,0-3.25-.4-5.81-2.99-6.17-6.24-.17-1.82-.18-3.65-.03-5.47,.08-.42,.34-.77,.71-.97"/><path id="j" d="M61.68,71.05c-1.88,0-3.58-1.1-4.36-2.81-.88-1.89-1.61-3.85-2.19-5.86-.64-2.26-1.49-4.45-2.56-6.55-.82-1.46-2.36-2.37-4.04-2.39-2.7-.15-5.41-.15-8.11,.01-2.81,.17-5.64,.17-8.45-.01-3.32-.4-5.92-3.03-6.28-6.35-.17-1.83-.18-3.67-.03-5.5,.08-.46,.38-.86,.8-1.07,.4-.12,.84-.08,1.21,.12,.25,.14,.43,.38,.49,.67,.14,.98,.16,1.97,.06,2.95-.06,.74-.07,1.49-.03,2.24,.12,2.27,1.84,4.12,4.09,4.42,2.79,.18,5.6,.19,8.39,0,2.72-.17,5.45-.17,8.17-.01,5.5,.45,7.15,5.7,8.74,10.77,.51,1.83,1.18,3.61,1.99,5.33,.39,.82,1.17,1.38,2.07,1.5,.75,.05,1.47-.31,1.88-.93,.46-.61,.59-1.4,.37-2.13-.25-.92-.58-1.82-1-2.67-.53-1.01-.9-2.11-1.09-3.24-.08-.6,.28-1.16,.86-1.34,.68-.13,1.36,.25,1.62,.89,.87,1.94,1.6,3.93,2.2,5.97,.59,2.64-1.07,5.27-3.71,5.86-.36,.08-.72,.12-1.09,.12m-16.4-17.97c1.11,0,2.21,.03,3.27,.12,1.76,.03,3.37,.98,4.24,2.52,1.07,2.11,1.94,4.32,2.58,6.59,.58,1.99,1.31,3.94,2.18,5.82,.97,2.12,3.38,3.17,5.59,2.44,2.28-.76,3.62-3.12,3.1-5.47-.59-2.01-1.32-3.98-2.17-5.9-.21-.54-.76-.86-1.33-.76-.46,.15-.74,.61-.67,1.09,.19,1.1,.56,2.16,1.07,3.14,.43,.87,.77,1.79,1.02,2.73,.24,.8,.08,1.66-.41,2.33-.47,.7-1.27,1.09-2.11,1.03-.99-.12-1.84-.74-2.27-1.63-.82-1.73-1.49-3.53-2.01-5.37-1.57-4.99-3.19-10.16-8.52-10.6-2.71-.16-5.43-.15-8.13,.01-2.81,.18-5.62,.17-8.43,0-2.37-.3-4.19-2.26-4.32-4.64-.04-.76-.03-1.52,.02-2.27,.1-.96,.08-1.93-.06-2.88-.05-.21-.18-.4-.38-.51-.31-.16-.67-.2-1.01-.09-.33,.18-.56,.5-.62,.87-.14,1.81-.13,3.62,.03,5.43,.35,3.2,2.86,5.75,6.06,6.14,2.8,.18,5.62,.18,8.42,.01,1.61-.06,3.25-.13,4.86-.13"/></g></svg>