<?xml version="1.0" encoding="UTF-8"?><svg id="a" xmlns="http://www.w3.org/2000/svg" viewBox="0 0 74.76 74.76"><g id="c"><path id="d" d="M37.38,6.74c9.98,0,11.16,.04,15.1,.22,2.37,.03,4.72,.46,6.95,1.29,1.62,.6,3.09,1.56,4.3,2.8,1.24,1.21,2.2,2.68,2.79,4.3,.82,2.22,1.26,4.57,1.29,6.94,.18,3.94,.22,5.12,.22,15.11s-.04,11.16-.22,15.1c-.03,2.37-.47,4.72-1.29,6.94-1.26,3.26-3.83,5.84-7.09,7.1-2.22,.82-4.57,1.26-6.94,1.29-3.94,.18-5.12,.22-15.1,.22s-11.16-.04-15.1-.22c-2.37-.03-4.72-.46-6.94-1.29-1.62-.6-3.09-1.56-4.3-2.8-1.24-1.21-2.2-2.68-2.79-4.3-.82-2.22-1.26-4.57-1.29-6.94-.18-3.94-.22-5.12-.22-15.1s.04-11.17,.22-15.11c.03-2.37,.47-4.72,1.29-6.94,.6-1.62,1.55-3.09,2.79-4.3,1.21-1.24,2.68-2.2,4.3-2.8,2.22-.82,4.57-1.26,6.94-1.29,3.94-.18,5.12-.22,15.1-.22m0-6.74c-10.15,0-11.42,.04-15.41,.23-3.1,.06-6.17,.65-9.07,1.74-2.49,.94-4.75,2.41-6.62,4.31-1.9,1.87-3.37,4.13-4.31,6.63C.87,15.8,.29,18.87,.22,21.97c-.18,3.99-.22,5.26-.22,15.42s.04,11.42,.22,15.42c.06,3.1,.65,6.17,1.74,9.07,1.94,5.02,5.91,8.99,10.93,10.93,2.9,1.09,5.97,1.68,9.07,1.74,3.99,.18,5.26,.23,15.41,.23s11.42-.04,15.41-.23c3.1-.06,6.17-.65,9.07-1.74,5.02-1.94,8.99-5.91,10.93-10.93,1.09-2.9,1.68-5.97,1.74-9.07,.18-3.99,.22-5.26,.22-15.41s-.04-11.43-.22-15.42c-.06-3.1-.65-6.17-1.74-9.07-.94-2.49-2.41-4.76-4.31-6.62-1.87-1.9-4.13-3.37-6.62-4.31-2.9-1.09-5.97-1.68-9.07-1.74-3.99-.18-5.26-.23-15.41-.23"/><path id="e" d="M37.38,18.19c-10.6,0-19.2,8.6-19.2,19.2s8.6,19.2,19.2,19.2,19.2-8.6,19.2-19.2-8.6-19.2-19.2-19.2h0m0,31.66c-6.88,0-12.46-5.58-12.46-12.46s5.58-12.46,12.46-12.46,12.46,5.58,12.46,12.46h0c0,6.88-5.58,12.46-12.46,12.46h0"/><path id="f" d="M61.82,17.43c0,2.48-2.01,4.49-4.49,4.49-2.48,0-4.49-2.01-4.49-4.49,0-2.48,2.01-4.49,4.48-4.49,2.48,0,4.49,2.01,4.49,4.49"/></g></svg>