<?xml version="1.0" encoding="UTF-8"?><svg id="a" xmlns="http://www.w3.org/2000/svg" viewBox="0 0 261.54 266.58"><rect x="61.19" y="98.95" width="86.89" height="12.88" transform="translate(-43.87 104.87) rotate(-45)"/><rect x="159.6" y="83.85" width="12.88" height="61.01" transform="translate(-32.23 150.9) rotate(-45)"/><rect x="61.19" y="135.33" width="86.88" height="12.88" transform="translate(-69.6 115.51) rotate(-45)"/><rect x="159.6" y="120.22" width="12.88" height="61.02" transform="translate(-57.95 161.6) rotate(-45.01)"/><path d="M102.45,20.55c2.65-.73,4.37-2.04,5.16-3.95,.52-1.22,.61-2.58,.26-3.86-.29-1.37-1.15-2.55-2.35-3.27-.84-.41-1.75-.64-2.68-.7,.53-.45,.97-1,1.3-1.62,.5-1.07,.59-2.3,.23-3.43-.26-1.03-.85-1.96-1.67-2.64-1.38-1.14-3.25-1.38-5.61-.73l-8.66,2.37,5.52,20.16,8.52-2.33Zm2.65-7.19c.24,.79,.22,1.63-.06,2.41-.59,1.29-1.78,2.2-3.18,2.43l-5.89,1.61-1.95-7.09,5.42-1.48c.93-.29,1.9-.4,2.87-.33,1.37,.1,2.51,1.1,2.78,2.45Zm-13.39-9.09l4.87-1.34c.9-.29,1.85-.41,2.8-.35,1.18,.15,2.13,1.05,2.33,2.22,.41,1.1,.11,2.35-.76,3.13-.75,.59-1.62,1.01-2.56,1.22l-4.97,1.36-1.71-6.24Z"/><path d="M124.66,7.77l-4.04,.79c-1.27,.2-2.44,.79-3.36,1.68-.85,.9-1.24,2.14-1.08,3.37,.05,1.22,.62,2.35,1.57,3.12,1,.81,2.27,1.18,3.55,1.04,1.12-.07,2.21-.4,3.17-.98,.84-.48,1.56-1.14,2.12-1.93,.08,.49,.27,.96,.54,1.37,.47,.61,1.22,.91,1.98,.8,.28-.02,.57-.05,.85-.1,.3-.07,.6-.16,.89-.28l-.13-1.89c-.16,.04-.31,.08-.45,.1-.13,.02-.25,.04-.38,.05-.25,.05-.52-.02-.71-.19-.13-.18-.2-.4-.21-.63l-.62-8.76c-.01-1.29-.74-2.47-1.89-3.06-1.38-.64-2.92-.89-4.43-.71-1.43,.07-2.82,.56-3.99,1.39-1.19,.98-1.78,2.51-1.55,4.04l2.38-.17c0-.64,.16-1.27,.48-1.82,.67-.84,1.69-1.31,2.76-1.28,.92-.12,1.85,.02,2.7,.4,.66,.37,1.07,1.07,1.06,1.83,.04,.33,0,.67-.1,.99-.2,.46-.63,.77-1.13,.82Zm1.38,1.38l.14,2.06c.17,1.46-.58,2.87-1.89,3.54-.78,.47-1.66,.75-2.57,.81-.69,.07-1.38-.11-1.96-.5h0c-.56-.38-.91-1.01-.93-1.69-.12-.87,.28-1.74,1.03-2.21,.63-.37,1.32-.61,2.04-.73l1.53-.31c.48-.09,.96-.22,1.43-.39,.42-.13,.81-.33,1.17-.58Z"/><path d="M140.68,15.41c.36,.61,.82,1.16,1.35,1.62,.8,.62,1.77,.99,2.79,1.07,1.39,.18,2.8-.15,3.97-.92,1.88-1.22,3.01-3.48,3.38-6.78,.36-2.02-.06-4.11-1.17-5.83-.95-1.39-2.47-2.28-4.15-2.45-1.07-.15-2.15,.03-3.12,.51-.7,.35-1.33,.83-1.85,1.41l.22-2.01-2.47-.28-2.35,21.11,2.54,.28,.86-7.74Zm.5-5.35c.1-1.22,.41-2.42,.92-3.53,.49-1.07,1.44-1.87,2.58-2.15,2.07-.51,4.16,.75,4.67,2.81,.26,1.04,.32,2.11,.18,3.17-.06,1.59-.65,3.11-1.68,4.33h0c-.46,.48-1.04,.83-1.68,1.02-2.05,.61-4.2-.56-4.81-2.61-.27-.99-.33-2.02-.19-3.04Z"/><path d="M162.32,21.25c.33,.09,.67,.16,1.01,.21,.31,.04,.62,.06,.93,.06l.51-1.96c-.19-.03-.35-.06-.49-.09-.14-.03-.27-.06-.39-.09-.33-.07-.65-.2-.92-.41-.31-.3-.41-.77-.25-1.17l2.55-9.61,2.35,.63,.54-2.02-2.35-.63,1.09-4.11-2.5-.67-1.09,4.11-1.99-.53-.54,2.02,1.99,.53-2.59,9.76c-.25,.8-.25,1.67,0,2.47,.41,.82,1.2,1.39,2.11,1.51Z"/><rect x="167.89" y="16.08" width="15.17" height="2.6" transform="translate(95.97 174.78) rotate(-68.86)"/><rect x="178.3" y="5.01" width="2.9" height="2.6" transform="translate(109.02 171.69) rotate(-68.86)"/><path d="M194.29,17.29c-1.29-.8-2.82-1.11-4.31-.86-1.32,.26-2.44,1.11-3.06,2.31-.59,1.03-.57,2.3,.05,3.31,.54,.88,1.21,1.67,1.99,2.34l1.53,1.43c.58,.51,1.11,1.08,1.57,1.7,.34,.52,.36,1.19,.04,1.73-.35,.71-1.08,1.16-1.87,1.15-.88,0-1.73-.23-2.49-.67-1.16-.49-2.03-1.49-2.34-2.71-.06-.7,.07-1.4,.39-2.03l-2.15-1.2c-.66,1.25-.85,2.7-.52,4.08,.33,1.36,1.49,2.58,3.47,3.68,1.42,.94,3.15,1.29,4.83,.98,1.3-.31,2.41-1.15,3.05-2.33,.67-1.03,.74-2.33,.19-3.42-.72-1.1-1.6-2.08-2.61-2.92l-1.28-1.18c-.46-.39-.85-.85-1.17-1.36-.38-.56-.41-1.28-.09-1.87,.27-.52,.78-.86,1.36-.92,.77-.04,1.54,.16,2.19,.58,1.04,.44,1.83,1.3,2.19,2.36,.09,.57,0,1.15-.23,1.68l2.12,1.17c.5-.87,.68-1.88,.53-2.86-.24-1.67-1.36-3.06-3.37-4.17Z"/><path d="M203.62,39.79c-.28-.19-.52-.43-.7-.73-.17-.4-.09-.86,.21-1.18l5.99-7.94,1.94,1.47,1.26-1.67-1.94-1.47,2.56-3.4-2.07-1.56-2.56,3.39-1.65-1.24-1.26,1.67,1.65,1.24-6.08,8.05c-.54,.65-.86,1.45-.92,2.29,.07,.92,.59,1.74,1.39,2.2,.27,.21,.56,.4,.86,.58,.27,.16,.55,.29,.85,.41l1.22-1.61c-.16-.1-.3-.19-.42-.27-.12-.08-.22-.16-.32-.23Z"/><path d="M226.09,43.03c-.33-1.04-.9-1.99-1.66-2.78-1.35-1.47-3.29-2.24-5.28-2.11-2.16,.19-4.17,1.17-5.65,2.76-1.6,1.39-2.59,3.36-2.75,5.47-.09,1.83,.6,3.61,1.9,4.89,.49,.51,1.03,.95,1.63,1.33,.93,.61,2.01,.95,3.12,.98,.71,.02,1.41-.08,2.08-.28,.65-.16,1.26-.45,1.8-.84l-1.77-1.8c-.6,.33-1.26,.52-1.95,.56-1.21,.04-2.38-.46-3.19-1.36-.93-.81-1.39-2.03-1.22-3.25,.27-1.29,.93-2.48,1.89-3.39l7.83,7.97c.82-.76,1.57-1.61,2.24-2.51,.58-.78,.99-1.67,1.2-2.62,.2-1.01,.12-2.06-.22-3.04h0Zm-2.22,2.48c-.29,.88-.76,1.69-1.39,2.38l-5.94-6.04c.86-.84,2-1.33,3.2-1.36,1.13-.04,2.22,.4,2.99,1.22,1.08,.94,1.53,2.42,1.14,3.8Z"/><path d="M236.81,80.87c1.41-.08,2.78-.51,4-1.23l12.97-6.84-1.31-2.48-12.32,6.5c-1.04,.63-2.19,1.07-3.38,1.3-1.23,.02-2.33-.74-2.75-1.89-.48-.74-.6-1.66-.35-2.5,.39-.84,1.07-1.5,1.92-1.87l1.32-.7-1.24-2.35-1.32,.7c-1.92,1.02-3,2.21-3.23,3.59-.22,1.43,.04,2.89,.75,4.14,1.27,2.4,2.91,3.61,4.94,3.64Z"/><path d="M248.83,87.34l.73,2.28c.62-.16,1.27-.14,1.88,.04,.97,.45,1.68,1.33,1.9,2.38,.33,.87,.42,1.81,.25,2.72-.2,.73-.79,1.29-1.53,1.47-.31,.12-.65,.17-.99,.14-.49-.09-.9-.43-1.07-.9l-1.73-3.73c-.5-1.18-1.34-2.18-2.42-2.87-1.08-.61-2.38-.71-3.53-.26-1.17,.34-2.14,1.16-2.66,2.26-.55,1.16-.61,2.49-.17,3.69,.33,1.07,.91,2.05,1.7,2.85,.66,.7,1.48,1.25,2.38,1.6-.46,.2-.87,.49-1.21,.85-.48,.6-.6,1.41-.31,2.11,.08,.27,.18,.54,.3,.8,.14,.28,.3,.54,.48,.8l1.8-.58c-.08-.15-.14-.28-.2-.41-.06-.13-.1-.25-.14-.36-.11-.23-.11-.51,.02-.73,.15-.17,.34-.29,.56-.35l8.36-2.67c1.25-.32,2.23-1.3,2.53-2.56,.3-1.49,.17-3.04-.35-4.47-.41-1.38-1.2-2.61-2.29-3.55-1.24-.92-2.86-1.13-4.29-.55Zm-1.8,10.42c-1.38,.51-2.93,.11-3.89-1-.64-.65-1.11-1.44-1.39-2.3-.23-.66-.22-1.37,.03-2.02h0c.24-.64,.76-1.13,1.42-1.31,.82-.32,1.75-.13,2.39,.48,.51,.53,.91,1.14,1.19,1.81l.67,1.41c.21,.45,.44,.88,.71,1.3,.23,.37,.51,.71,.84,1l-1.97,.63Z"/><path d="M251.32,108.77c-1.96,.19-3.8,1.07-5.17,2.48-1.28,1.33-1.85,3.19-1.54,5.01,0,.11,.01,.21,.02,.32,.35,3.31,3.31,5.71,6.61,5.36l-.33-2.47c-1.01-.04-1.98-.36-2.81-.93-.11-.09-.22-.19-.32-.3-1.42-1.51-1.34-3.88,.17-5.3,1.07-.83,2.35-1.33,3.69-1.47,1.29-.21,2.62-.15,3.88,.17,1.53,.33,2.67,1.6,2.83,3.16,.21,.94,0,1.93-.58,2.7-.59,.64-1.34,1.11-2.18,1.34l.33,2.47c1.62-.25,3.08-1.15,4.02-2.49h0c.71-1.32,.95-2.84,.69-4.31-.21-1.9-1.26-3.6-2.87-4.63-1.94-1.15-4.24-1.54-6.45-1.11Z"/><path d="M260.44,139.31h0c.7-.9,1.08-2.01,1.09-3.14,.11-1.84-.69-3.62-2.15-4.76-1.69-1.33-3.77-2.05-5.92-2.05-2.6-.11-4.56,.45-5.88,1.67-2.01,1.78-2.65,4.65-1.6,7.11,.35,.74,.88,1.37,1.55,1.84l-7.82-.33-.11,2.57,21.29,.91,.1-2.43-2.12-.09c.6-.34,1.13-.78,1.57-1.3Zm-3.6,.57c-1.06,.39-2.2,.55-3.32,.47-1.2-.01-2.39-.25-3.5-.7-1.54-.59-2.5-2.14-2.34-3.79-.01-1.57,1.02-2.96,2.52-3.41h0c1.07-.35,2.21-.49,3.34-.41,1.58-.06,3.14,.43,4.41,1.38,.87,.71,1.36,1.79,1.32,2.91,.03,1.58-.94,3.01-2.42,3.55Z"/><path d="M246.13,151.9c-1.59,.44-2.63,1.72-3.11,3.84-.32,1.25-.19,2.57,.37,3.74,.28,.58,.68,1.1,1.15,1.53l-2.19-.53-.54,2.36,14.85,3.4,.57-2.5-7.3-1.67c-1.17-.22-2.3-.66-3.31-1.3-1.37-.87-1.99-2.54-1.52-4.08,.13-1.05,.88-1.91,1.9-2.18,.64-.13,1.31-.11,1.94,.07l9.86,2.26,.6-2.54-10.1-2.31c-1.04-.29-2.13-.31-3.18-.07Z"/><path d="M246.16,173.26c-1.89-.96-4.09-1.14-6.11-.49-1.73,.6-3.12,1.91-3.82,3.6-.29,.64-.5,1.32-.62,2.01-.22,1.09-.13,2.22,.26,3.26,.25,.66,.6,1.28,1.05,1.83,.4,.54,.89,1,1.45,1.35l1-2.31c-.53-.43-.96-.97-1.25-1.6-.49-1.11-.47-2.38,.06-3.46,.4-1.16,1.36-2.04,2.55-2.35,1.3-.24,2.64-.07,3.85,.48l-4.45,10.25c1.02,.48,2.08,.85,3.17,1.13,.94,.25,1.92,.29,2.87,.13,1.01-.2,1.96-.66,2.73-1.34h0c.84-.7,1.51-1.58,1.95-2.58,.85-1.8,.84-3.89-.03-5.69-.99-1.93-2.65-3.43-4.68-4.2Zm2.72,8.85c-.47,1.36-1.67,2.33-3.1,2.49-.93,.06-1.86-.07-2.73-.39l3.38-7.77c1.1,.48,1.98,1.36,2.47,2.45,.46,1.02,.46,2.2-.01,3.22Z"/><path d="M243.64,196.77l-1.77-1.11-1.09,1.75-8.56-5.34c-.69-.48-1.52-.73-2.36-.72-.91,.15-1.68,.74-2.07,1.58-.18,.29-.35,.59-.5,.91-.13,.28-.24,.58-.33,.88l1.72,1.07c.08-.17,.16-.32,.23-.44,.07-.12,.14-.24,.2-.34,.16-.3,.39-.56,.66-.76,.38-.21,.85-.17,1.19,.11l8.44,5.26-1.29,2.06,1.78,1.11,1.29-2.06,3.61,2.25,1.37-2.2-3.61-2.25,1.09-1.75Z"/><rect x="206.88" y="219.97" width="16.32" height="2.09" transform="translate(-92.94 205.68) rotate(-42.93)"/><path d="M187.24,231.56l.7,6.62-7.44,3.61-4.64-4.7-2.79,1.35,15.95,15.49,2.88-1.4-2.05-22.25-2.61,1.27Zm-4.91,11.91l5.89-2.86,1,9.78-6.89-6.92Z"/><path d="M163.72,241.2l2.43,8.42c.3,1.01,.23,2.09-.2,3.04-.48,1.03-1.41,1.77-2.51,2.02-.14,.04-.28,.07-.41,.1-.14,.03-.28,.05-.42,.06l.75,2.6c.28-.05,.46-.08,.58-.11,.11-.02,.19-.04,.24-.05,.97-.28,1.79-.93,2.28-1.81,.44-.66,.75-1.41,.89-2.2l.73,2.53,2.34-.67-4.23-14.64-2.46,.71Z"/><path d="M155.63,256.72l-2.04,.33-1.6-9.96c-.1-.84-.45-1.62-1.01-2.25-.71-.58-1.66-.78-2.55-.52-.34,.05-.68,.13-1.01,.22-.3,.09-.59,.2-.88,.33l.32,1.99c.19-.05,.35-.09,.49-.11,.14-.03,.27-.05,.39-.07,.33-.08,.68-.08,1.01,0,.41,.15,.68,.53,.7,.97l1.59,9.82-2.4,.39,.33,2.07,2.4-.39,.67,4.2,2.56-.41-.68-4.2,2.04-.33-.33-2.07Z"/><rect x="137.29" y="263.61" width="2.6" height="2.9" transform="translate(-13.33 7.41) rotate(-2.92)"/><rect x="136.68" y="245.63" width="2.6" height="15.17" transform="translate(-12.85 7.44) rotate(-2.95)"/><path d="M119.23,247.38c.8-.36,1.68-.5,2.55-.41,1.26-.03,2.46,.53,3.24,1.51,.35,.61,.51,1.31,.48,2.01l2.45,.2c.09-1.41-.34-2.81-1.2-3.93-.85-1.1-2.41-1.75-4.67-1.93-1.68-.27-3.41,.12-4.81,1.09-1.06,.81-1.73,2.04-1.83,3.38-.19,1.21,.28,2.43,1.24,3.2,1.11,.71,2.31,1.25,3.58,1.59l1.65,.55c.58,.17,1.12,.43,1.62,.76,.57,.35,.9,1,.85,1.67-.04,.58-.36,1.11-.86,1.4-.69,.36-1.47,.49-2.24,.37-1.12,.03-2.2-.43-2.97-1.26-.31-.48-.48-1.05-.48-1.62l-2.41-.2c-.1,.99,.15,1.99,.69,2.83,.9,1.42,2.49,2.23,4.78,2.42,1.5,.2,3.03-.15,4.29-.99,1.09-.78,1.77-2.02,1.84-3.36,.12-1.18-.42-2.33-1.41-3-.85-.58-1.79-1.03-2.77-1.32l-1.98-.68c-.74-.22-1.45-.52-2.12-.9-.52-.34-.81-.94-.74-1.56,.03-.79,.51-1.5,1.24-1.82Z"/><path d="M104.43,242.06c-1.08-.3-2.22-.33-3.32-.09-.95,.18-1.85,.57-2.63,1.15,.08-.49,.06-.99-.07-1.47-.24-.73-.86-1.26-1.62-1.4-.28-.08-.55-.13-.84-.18-.31-.03-.62-.04-.94-.03l-.48,1.83c.17,.01,.32,.03,.46,.05,.14,.02,.27,.05,.38,.08,.34,.09,.54,.23,.6,.41,.07,.22,.07,.45,0,.66l-2.24,8.49c-.41,1.23-.1,2.58,.8,3.51,1.1,1.05,2.47,1.78,3.96,2.11,1.38,.4,2.85,.39,4.22-.03,1.44-.55,2.49-1.81,2.77-3.32l-2.31-.61c-.2,.61-.56,1.15-1.05,1.56-.9,.58-2.02,.7-3.03,.32-.91-.18-1.75-.62-2.43-1.25-.51-.56-.67-1.36-.42-2.07,.07-.33,.21-.64,.41-.91,.34-.37,.85-.52,1.33-.41l4.07,.55c1.26,.22,2.56,.04,3.72-.5,1.09-.58,1.87-1.62,2.12-2.84,.34-1.17,.17-2.43-.48-3.46-.68-1.08-1.77-1.85-3.02-2.13Zm.9,4.96c-.17,.86-.83,1.55-1.69,1.76-.72,.14-1.45,.15-2.17,.03l-1.55-.2c-.49-.07-.98-.1-1.48-.1-.44,0-.87,.05-1.29,.17l.53-2c.31-1.44,1.48-2.53,2.93-2.74,.89-.19,1.81-.17,2.69,.06,.68,.16,1.27,.55,1.69,1.11h0c.41,.55,.54,1.25,.34,1.9Z"/><path d="M82.43,243.59c-.31,.71-.7,1.37-1.16,1.99-.38,.46-.87,.82-1.42,1.05-.69,.33-1.45,.45-2.21,.34-.5-.09-.98-.25-1.43-.47-.98-.37-1.63-1.3-1.63-2.35,.03-.77,.23-1.53,.59-2.21l4.12-8.68-2.35-1.12-4.19,8.83c-.58,1.07-.9,2.26-.95,3.47,.04,1.69,1.04,2.99,2.99,3.92,.83,.41,1.75,.62,2.68,.63,1.01-.03,2-.29,2.89-.75l-.93,1.95,2.2,1.04,6.53-13.76-2.31-1.1-3.42,7.21Z"/><path d="M50.41,224.29l-4.79-4.5c-1.18-1.3-2.9-2-4.66-1.88-1.55,.18-2.98,.91-4.02,2.07-1.2,1.14-1.85,2.74-1.78,4.39,.16,1.64,.95,3.15,2.2,4.22l6.86,6.43,14.3-15.24-2.07-1.94-6.04,6.44Zm-6.6,7.02l-4.11-3.85c-.67-.57-1.21-1.28-1.58-2.08h0c-.44-1.23-.09-2.6,.9-3.45,.66-.88,1.73-1.36,2.82-1.27,1.07,.21,2.05,.74,2.81,1.53l4.11,3.85-4.95,5.28Z"/><path d="M30.22,207.7c-1.06-.13-2.01-.75-2.54-1.68-.58-.72-.96-1.59-1.07-2.51-.03-.76,.35-1.47,1-1.86,.26-.21,.57-.36,.9-.43,.49-.07,.98,.14,1.29,.53l2.79,3.03c.84,.97,1.95,1.66,3.19,1.99,1.22,.25,2.48-.06,3.44-.84,1.01-.68,1.67-1.76,1.84-2.97,.16-1.27-.19-2.55-.97-3.57-.64-.92-1.5-1.67-2.49-2.19-.85-.46-1.79-.73-2.76-.79,.37-.33,.68-.73,.89-1.18,.28-.72,.14-1.52-.36-2.11-.16-.23-.34-.46-.53-.67-.22-.22-.45-.43-.7-.62l-1.54,1.1c.12,.11,.22,.22,.32,.33s.17,.21,.24,.3c.18,.19,.25,.45,.2,.7-.09,.21-.24,.38-.42,.51l-7.14,5.11c-1.09,.69-1.72,1.92-1.62,3.21,.18,1.51,.77,2.95,1.71,4.15,.81,1.18,1.95,2.11,3.27,2.67,1.46,.5,3.07,.19,4.25-.8l-1.39-1.94c-.54,.34-1.16,.52-1.8,.54Zm1.71-9.07c1.15-.91,2.75-1.01,4.01-.25,.81,.42,1.5,1.03,2.03,1.76,.42,.55,.63,1.24,.6,1.93-.03,.68-.38,1.31-.95,1.68-.68,.56-1.63,.67-2.42,.28-.64-.35-1.22-.81-1.69-1.36l-1.07-1.14c-.33-.36-.69-.7-1.08-1.01-.33-.29-.71-.52-1.11-.69l1.68-1.2Z"/><path d="M29.35,182.96l-7.83,3.94c-.93,.48-2.01,.61-3.03,.36-1.1-.28-2-1.06-2.45-2.1-.07-.14-.13-.26-.18-.38-.05-.13-.1-.26-.14-.4l-2.42,1.21c.1,.26,.17,.44,.21,.55,.05,.11,.08,.18,.1,.22,.45,.9,1.24,1.59,2.19,1.91,.74,.31,1.53,.47,2.33,.47l-2.35,1.18,1.09,2.17,13.61-6.84-1.15-2.29Z"/><path d="M17.79,175.3c2.48-.79,4.13-1.99,4.94-3.6,.81-1.44,.98-3.15,.49-4.73-.27-.94-.76-1.8-1.43-2.51-.58-.58-1.3-.99-2.09-1.19l7.45-2.38-.78-2.45-20.3,6.49,.74,2.32,2.02-.64c-.44,.52-.79,1.12-1.02,1.76h0c-.34,1.09-.32,2.26,.06,3.33,.53,1.77,1.9,3.16,3.65,3.72,2.04,.67,4.25,.63,6.27-.11Zm-5.6-2.27c-1.06-.37-1.89-1.21-2.24-2.28-.58-1.47-.16-3.15,1.04-4.17,.86-.74,1.87-1.28,2.96-1.59,1.13-.4,2.33-.59,3.53-.55,1.65,.02,3.09,1.15,3.51,2.75,.56,1.47,.07,3.14-1.19,4.07h0c-.89,.7-1.9,1.22-2.99,1.53-1.47,.6-3.09,.68-4.61,.23Z"/><path d="M16.93,151.62c1.34-.96,1.87-2.52,1.6-4.68-.13-1.28-.71-2.48-1.63-3.38-.47-.45-1.01-.8-1.61-1.04l2.23-.25-.3-2.4-15.12,1.9,.32,2.54,7.42-.94c1.18-.2,2.38-.17,3.55,.08,1.58,.34,2.74,1.7,2.83,3.32,.24,1.03-.17,2.1-1.04,2.7-.56,.34-1.19,.55-1.84,.6l-10.04,1.27,.33,2.6,10.27-1.3c1.07-.09,2.11-.44,3.01-1.03Z"/><path d="M9.53,131.53c2.11,.25,4.23-.35,5.9-1.65,1.41-1.16,2.26-2.87,2.33-4.7,.05-.7,.01-1.41-.11-2.1-.17-1.1-.65-2.13-1.38-2.97-.46-.53-1.01-.99-1.61-1.35-.56-.37-1.18-.63-1.83-.77l-.14,2.51c.65,.22,1.24,.58,1.72,1.07,.85,.87,1.26,2.06,1.15,3.27,.03,1.23-.57,2.39-1.58,3.09-1.14,.67-2.45,.98-3.77,.89l.62-11.15c-1.12-.09-2.25-.08-3.36,.04-.97,.09-1.9,.39-2.74,.87-.88,.54-1.6,1.3-2.1,2.21-.55,.94-.87,2-.94,3.1-.18,1.99,.56,3.95,2,5.33,1.59,1.47,3.67,2.3,5.84,2.32Zm-3.58-10.77c.85-.38,1.77-.58,2.7-.58l-.47,8.45c-1.2-.07-2.33-.58-3.16-1.44-.79-.8-1.19-1.91-1.11-3.03-.03-1.43,.76-2.76,2.04-3.4Z"/><path d="M3.75,108.63l2.05,.42,.41-2.02,9.88,2.04c.82,.21,1.68,.16,2.46-.14,.8-.46,1.32-1.28,1.39-2.2,.07-.34,.12-.68,.15-1.02,.02-.31,.02-.62,0-.94l-1.98-.41c-.02,.19-.05,.35-.07,.49s-.05,.27-.07,.39c-.05,.34-.17,.66-.35,.95-.29,.33-.74,.45-1.15,.31l-9.74-2.01,.49-2.38-2.05-.42-.49,2.38-4.17-.86-.52,2.54,4.17,.86-.42,2.02Z"/><path d="M14.81,95.72c1.94,.86,4.14,.91,6.12,.16,1.69-.7,3.01-2.08,3.61-3.81,.25-.66,.42-1.34,.51-2.04,.16-1.1,0-2.22-.44-3.24-.29-.65-.67-1.24-1.14-1.77-.42-.52-.94-.95-1.53-1.27l-.87,2.36c.56,.4,1.01,.92,1.33,1.53,.55,1.08,.6,2.34,.13,3.46-.34,1.18-1.24,2.12-2.41,2.49-1.29,.31-2.64,.22-3.87-.26l3.87-10.47c-1.04-.42-2.12-.74-3.23-.95-.95-.2-1.93-.19-2.88,.03-1,.25-1.92,.77-2.65,1.49h0c-.8,.74-1.42,1.66-1.8,2.69-.75,1.85-.63,3.94,.34,5.68,1.09,1.87,2.84,3.27,4.9,3.93Zm-3.21-8.69c.39-1.38,1.54-2.41,2.95-2.65,.92-.11,1.86-.03,2.75,.24l-2.93,7.94c-1.12-.42-2.05-1.24-2.6-2.31-.52-1-.58-2.17-.17-3.22Z"/><path d="M28.7,76.78c1.65,.07,3.03-.83,4.14-2.7,.69-1.09,.97-2.39,.79-3.67-.09-.64-.31-1.25-.63-1.81l1.92,1.17,1.24-2.08-13.09-7.79-1.31,2.2,6.43,3.83c1.05,.57,1.98,1.33,2.75,2.25,1.04,1.24,1.11,3.02,.19,4.35-.44,.96-1.42,1.54-2.48,1.49-.65-.08-1.28-.3-1.83-.66l-8.69-5.17-1.34,2.25,8.9,5.3c.9,.59,1.93,.95,3.01,1.04Z"/><path d="M43.21,58.49l-6.74-5.6c-.81-.66-1.36-1.6-1.54-2.63-.18-1.12,.17-2.26,.94-3.08,.1-.11,.19-.22,.28-.31,.1-.1,.2-.2,.31-.29l-2.08-1.73c-.2,.19-.33,.34-.41,.41-.08,.08-.14,.14-.17,.18-.65,.77-.96,1.77-.87,2.77,0,.8,.18,1.59,.5,2.32l-2.03-1.68-1.55,1.87,11.72,9.73,1.64-1.97Z"/><rect x="53.34" y="29.7" width="16.32" height="2.09" transform="translate(-6.53 40.71) rotate(-34.9)"/></svg>