<svg id="a" xmlns="http://www.w3.org/2000/svg" viewBox="0 0 80.25 80.25"><path d="M40.12,0C17.96,0,0,17.96,0,40.12s17.96,40.12,40.12,40.12c22.15-.02,40.1-17.97,40.12-40.12C80.25,17.96,62.29,0,40.12,0Zm0,77.5C19.48,77.5,2.75,60.77,2.75,40.12S19.48,2.75,40.12,2.75c20.63,.02,37.35,16.74,37.38,37.38,0,20.64-16.73,37.38-37.38,37.38Z"/><path d="M43.85,20.47h-14.37V59.78h3.34v-16.99h10.69c7.95,0,12.7-4.22,12.7-11.28s-4.74-11.04-12.36-11.04Zm8.88,11.13c0,5.28-3.14,8.08-9.09,8.08h-10.82V23.59h11.05c5.55,0,8.86,3,8.86,8.01Z"/></svg>