<svg id="a" xmlns="http://www.w3.org/2000/svg" viewBox="0 0 83.72 81.01"><g id="b"><path id="c" d="M0,12.2c.59-.83,1.29-1.35,2.28-.73,5.52,5.32,10.7,11.03,16.41,16.13,.57,.28,1.2,.44,1.83,.47,1.62,.02,4.27-1.13,5.63-.25,1.13,.99,2.19,2.06,3.19,3.19,.83,1.25-.31,1.77,0,2.44,.29,.62,2.31,2.1,2.86,2.87,1.01,1.42,.18,2.94-1.51,2.49-.57-.15-3.68-3.36-4.02-3.99-.59-1.07-.13-1.87-.38-2.72-.44-.54-.92-1.04-1.44-1.5-.81-.35-3.48,.45-4.65,.4-1.18-.1-2.32-.47-3.34-1.08C11.74,24.55,5.29,19.36,.49,13.76c-.21-.24-.3-.49-.48-.74v-.82Z"/><path id="d" d="M76.63,5.56c2.13,0,4.21,.61,5.99,1.77,1.1,.82,1.52,1.58,.52,2.76L13.74,79.49c-5.72,4.68-13.4-2.41-7.86-8.84,6.42-7.45,14.89-14.11,21.51-21.49,1.17-1.13,2.78-1.67,4.39-1.46,.45,.06,1.39,.51,1.62,.45,.97-.83,1.88-1.72,2.74-2.67,.38-.56-.34-.96-.63-1.51-1.2-1.99-.88-4.55,.78-6.19,7.94-7.5,15.32-15.87,23.3-23.3,4.44-4.13,10.67-8.93,17.04-8.93m3.32,3.54c-5.98-2.15-12.33,2.2-16.68,5.96-8.69,7.51-16.44,16.97-24.92,24.79-1.78,2.42,.8,2.99,.9,5.13,.03,.76-.21,1.52-.67,2.13-1.16,1.35-2.47,2.56-3.89,3.63-2.06,.97-3.36-.89-4.95,.29L7.36,73.44c-.93,1.35-.6,3.2,.75,4.14,1.2,.83,2.82,.67,3.83-.38L79.96,9.1Z"/><path id="e" d="M52.6,45.43c.54-.16,1.12-.02,1.52,.37l25.5,25.52c2.09,2.49,1.77,6.21-.72,8.3-2.02,1.7-4.93,1.85-7.12,.35l-25.75-25.6c-1.3-1.47,.26-3.45,1.92-2.25l25.37,25.32c1.28,1.01,3.14,.8,4.15-.48,.91-1.14,.84-2.78-.15-3.85l-25.34-25.34c-.52-.63-.44-1.57,.19-2.09,.12-.1,.26-.18,.41-.24"/><path id="f" d="M38.7,32.42c-.51,.42-1.22,.5-1.81,.19-.83-.43-2.9-3.23-3.49-3.39-.65-.17-1.04,.85-2.16,.21-1.32-1.19-2.55-2.46-3.7-3.82-.34-1.06,.61-3.85,.59-5.15-.06-.75-.3-1.47-.69-2.11L11.94,2.79c-1.56-1.56-.04-3.72,1.88-2.37,4.62,5.26,10.84,9.99,15.28,15.29,2.47,2.95,1.95,5.36,1.4,8.92l1.71,1.71c1.08-.28,2.23-.04,3.11,.65,1.26,1.14,2.45,2.35,3.57,3.62,.33,.58,.25,1.31-.19,1.81"/><path id="g" d="M4.86,7.49c.56-.06,1.12,.14,1.52,.54,3.54,4.18,8.82,7.99,12.18,12.19,1.16,1.44,.35,2.81-1.4,2.55L4.09,9.83c-.51-.64-.39-1.57,.25-2.08,.16-.12,.33-.21,.53-.26"/><path id="h" d="M8.79,3.73c.51-.02,1,.18,1.35,.54,4.19,3.24,8.08,8.81,12.26,12.27,.6,.53,.65,1.45,.11,2.05-.52,.58-1.39,.65-1.99,.16L7.85,6.07c-.5-.61-.41-1.52,.2-2.03,.21-.17,.47-.28,.74-.32"/></g></svg>