<svg id="a" xmlns="http://www.w3.org/2000/svg" viewBox="0 0 76.18 75.98"><g id="b"><path id="c" d="M28.28,31.82v4.91h47.83v2.45H.07v-2.45H8.66v-4.91H3.37c-.29,0-.94-.77-.85-1.15L2.59,.69l.69-.69L73,.05l.54,.54,.12,29.94c.01,.57-.33,1.08-.85,1.29H28.28ZM71.2,2.38H4.98V29.37h3.68v-5.29c0-.87,1.84-.95,2.45-.84v-4.52c.29-.95,.76-1.83,1.38-2.6,.59-.45,1.2-.86,1.84-1.24-1.46-2.29-.78-5.33,1.51-6.79,2.29-1.46,5.33-.78,6.79,1.51,1.02,1.61,1.02,3.67,0,5.28,.63,.38,1.24,.8,1.83,1.24,.67,.8,1.14,1.74,1.38,2.76v4.37c.61-.11,2.45-.02,2.45,.84v5.28h42.92V2.38ZM20.93,12.19c0-1.36-1.1-2.46-2.46-2.46s-2.46,1.1-2.46,2.46c0,1.36,1.1,2.46,2.46,2.46h0c1.36,0,2.46-1.1,2.46-2.46m2.45,11.04v-4.22c0-.65-1.17-1.71-1.83-1.85-2.05-.19-4.1-.19-6.15,0-.68,.14-1.83,1.15-1.83,1.85v4.22h9.81Zm2.45,2.45H11.11v11.04h14.72v-11.04Z"/><path id="d" d="M13.1,61.71c1.17,.28,2.18,1,2.84,2h.22c.59-1.03,1.6-1.76,2.76-1.99-.51-.99-.87-2.04-1.08-3.13-.5-7.73,11.55-7.75,11.05,0-.21,1.09-.57,2.15-1.08,3.13,1.16,.25,2.16,.97,2.76,1.99h.3c.59-1.03,1.6-1.76,2.76-1.99-.4-1.15-1.03-1.96-1.08-3.29-.3-7.64,11.55-7.5,11.05,.15-.21,1.09-.57,2.15-1.08,3.14,1.16,.25,2.16,.97,2.76,1.99h.3c.59-1.03,1.59-1.76,2.76-2-.4-1.15-1.03-1.96-1.08-3.29-.3-7.64,11.55-7.5,11.05,.15-.21,1.09-.57,2.15-1.08,3.14,1.16,.25,2.16,.97,2.76,1.99h.3c.59-1.03,1.6-1.76,2.76-1.99-.4-1.15-1.03-1.96-1.08-3.29-.31-7.8,11.9-7.4,11.03,.44-.26,.98-.62,1.94-1.06,2.85,5.83,1.79,3.81,8.75,4.11,13.38-.15,.56-.68,.93-1.26,.88l-73.86-.04c-.46-.12-.8-.5-.87-.97,.34-4.6-1.68-11.47,4.13-13.25-.44-.92-.79-1.87-1.05-2.85-.92-8.26,12.27-8.01,10.95,.25-.28,.89-.61,1.75-1,2.6m-1.38-3.53c0-1.7-1.38-3.07-3.07-3.07-1.7,0-3.07,1.38-3.07,3.07,0,1.69,1.37,3.07,3.07,3.07,1.7,0,3.07-1.37,3.07-3.07m14.72,0c0-1.7-1.37-3.07-3.07-3.07-1.7,0-3.07,1.37-3.07,3.07s1.37,3.07,3.07,3.07h0c1.7,0,3.07-1.37,3.07-3.07m14.72,0c0-1.7-1.38-3.07-3.07-3.07-1.7,0-3.07,1.38-3.07,3.07,0,1.7,1.37,3.07,3.07,3.07,1.7,0,3.07-1.37,3.07-3.07h0m14.72,0c0-1.7-1.37-3.07-3.07-3.07-1.7,0-3.07,1.37-3.07,3.07s1.37,3.07,3.07,3.07h0c1.7,0,3.07-1.37,3.07-3.07m14.72,0c0-1.7-1.37-3.07-3.07-3.07-1.7,0-3.07,1.37-3.07,3.07s1.37,3.07,3.07,3.07h0c1.7,0,3.07-1.37,3.07-3.07m-55.8,15.33v-6.82c0-.93-1.47-2.4-2.33-2.73-1.12-.43-4.99-.37-6.34-.27-1.27,.05-2.42,.74-3.08,1.82-.2,.38-.37,.77-.51,1.17v6.82H14.79Zm14.72,0v-6.82c0-.93-1.48-2.4-2.33-2.73-1.12-.43-4.99-.37-6.34-.27-1.27,.05-2.42,.74-3.08,1.82-.2,.38-.37,.77-.51,1.17v6.82h12.26Zm14.72,0v-6.82c0-.93-1.48-2.4-2.33-2.73-1.12-.43-4.99-.37-6.34-.27-1.27,.05-2.42,.74-3.08,1.82-.2,.38-.37,.77-.52,1.17v6.82h12.26Zm14.72,0v-6.82c0-.93-1.48-2.4-2.33-2.73-1.12-.43-4.99-.37-6.34-.27-1.27,.05-2.42,.74-3.08,1.82-.2,.38-.37,.77-.51,1.17v6.82h12.26Zm14.72,0v-6.82c0-.93-1.48-2.4-2.33-2.73-1.12-.43-4.99-.37-6.34-.27-1.27,.05-2.42,.74-3.08,1.82-.2,.38-.37,.77-.52,1.17v6.82h12.26Z"/><path id="e" d="M21.52,48.37c0,3.04-2.47,5.51-5.51,5.51s-5.51-2.47-5.51-5.51c0-3.04,2.47-5.51,5.51-5.51,3.04,0,5.51,2.47,5.51,5.51h0m-2.44,0c0-1.7-1.37-3.07-3.07-3.07-1.7,0-3.07,1.37-3.07,3.07s1.37,3.07,3.07,3.07h0c1.7,0,3.07-1.37,3.07-3.07"/><path id="f" d="M36.24,48.37c0,3.04-2.47,5.51-5.51,5.51s-5.51-2.47-5.51-5.51c0-3.04,2.47-5.51,5.51-5.51,3.04,0,5.51,2.47,5.51,5.51h0m-2.44,0c0-1.7-1.37-3.07-3.07-3.07-1.7,0-3.07,1.37-3.07,3.07s1.37,3.07,3.07,3.07h0c1.7,0,3.07-1.37,3.07-3.07"/><path id="g" d="M65.67,48.37c0,3.04-2.47,5.51-5.51,5.51s-5.51-2.47-5.51-5.51c0-3.04,2.47-5.51,5.51-5.51,3.04,0,5.51,2.47,5.51,5.51h0m-2.44,0c0-1.7-1.37-3.07-3.07-3.07-1.7,0-3.07,1.37-3.07,3.07s1.37,3.07,3.07,3.07h0c1.7,0,3.07-1.37,3.07-3.07"/><path id="h" d="M50.96,48.37c0,3.04-2.47,5.51-5.51,5.51s-5.51-2.47-5.51-5.51c0-3.04,2.47-5.51,5.51-5.51,3.04,0,5.51,2.47,5.51,5.51h0m-2.44,0c0-1.7-1.37-3.07-3.07-3.07-1.7,0-3.07,1.37-3.07,3.07,0,1.7,1.37,3.07,3.07,3.07h0c1.7,0,3.07-1.37,3.07-3.07h0"/><path id="i" d="M45.87,4.88c5.9,.32,12.53-.57,18.35-.04,2.52,.21,4.48,2.29,4.53,4.82,.27,4.24,.26,8.49,0,12.73-.21,2.52-2.29,4.48-4.82,4.53-5.71,.39-11.88-.31-17.63-.01-2.35-.21-4.23-2.03-4.52-4.37,.36-4.25-.49-9.32,.02-13.47,.33-2.13,1.97-3.81,4.09-4.19m.3,2.45c-1.06,.22-1.85,1.11-1.95,2.19,.32,4.05-.43,8.75,0,12.72,.13,1.23,1.14,2.17,2.37,2.23,5.59-.38,11.82,.49,17.34,0,1.05-.03,1.95-.72,2.27-1.72-.1-4.15,.49-8.99,.11-13.09-.05-1.29-1.08-2.33-2.38-2.38-5.63-.5-12.04,.36-17.75,.04"/><rect id="j" x="51.58" y="14.65" width="12.26" height="2.45"/><rect id="k" x="51.58" y="19.55" width="12.26" height="2.45"/><rect id="l" x="51.58" y="9.74" width="12.26" height="2.45"/><rect id="m" x="46.67" y="14.65" width="2.45" height="2.45"/><rect id="n" x="46.67" y="19.55" width="2.45" height="2.45"/><rect id="o" x="46.67" y="9.74" width="2.45" height="2.45"/></g></svg>