<svg id="a" xmlns="http://www.w3.org/2000/svg" viewBox="0 0 40.2 40.2"><g id="b"><path d="M18.67,40.2l-4.3-13.99c-.05-.18-.2-.32-.37-.37L0,21.53v-2.87l13.99-4.3c.18-.05,.32-.19,.37-.37L18.67,0h2.87l4.3,13.99c.05,.18,.2,.32,.37,.37l13.99,4.3v2.87s-13.99,4.3-13.99,4.3c-.18,.05-.32,.2-.37,.37l-4.3,13.99h-2.87ZM5.55,20.1l9.33,2.87c1.13,.35,2.01,1.23,2.36,2.36l2.87,9.32,2.87-9.32c.35-1.13,1.23-2.01,2.36-2.36l9.33-2.87-9.33-2.87c-1.13-.35-2.01-1.23-2.36-2.36l-2.87-9.33-2.87,9.33c-.35,1.13-1.23,2.01-2.36,2.36l-9.33,2.87Z"/></g></svg>