<svg xmlns="http://www.w3.org/2000/svg" viewBox="0 0 32 32"><g transform="scale(0.03125 0.03125)"><path class="st0" d="M367.9,331.8h199.4v102.2h2.9c27.7-49.8,95.7-102.2,196.9-102.2c210.5,0,249.4,131,249.4,301.5v347.1H808.6V672.7c0-73.4-1.5-167.8-108.1-167.8c-108.3,0-124.8,79.9-124.8,162.5v313.1H367.9V331.8z"/><path class="st0" d="M7.6,331.8h216.2v648.6H7.6V331.8z"/><path class="st0" d="M223.8,151.7c0,59.7-48.4,108.1-108.1,108.1S7.6,211.4,7.6,151.7S56,43.6,115.7,43.6S223.8,92,223.8,151.7z"/></g></svg>