<svg xmlns="http://www.w3.org/2000/svg" viewBox="0 0 32 26"><g transform="scale(0.03125 0.03125)"><path class="st0" d="M1024.2,98.4c-37.6,16.8-78.2,28-120.6,33c43.4-26,76.6-67.2,92.4-116.2c-40.6,24-85.6,41.6-133.4,51C824.2,25.4,769.6,0,709.2,0c-116,0-210,94-210,210c0,16.4,1.8,32.4,5.4,47.8C330,249,175.2,165.4,71.6,38.2c-18,31-28.4,67.2-28.4,105.6c0,72.8,37,137.2,93.4,174.8c-34.4-1-66.8-10.6-95.2-26.2c0,0.8,0,1.8,0,2.6c0,101.8,72.4,186.8,168.6,206c-17.6,4.8-36.2,7.4-55.4,7.4c-13.6,0-26.6-1.4-39.6-3.8c26.8,83.4,104.4,144.2,196.2,146c-72,56.4-162.4,90-261,90c-17,0-33.6-1-50.2-3C93.2,797.4,203.6,832,322.2,832C708.6,832,920,511.8,920,234.2c0-9.2-0.2-18.2-0.6-27.2C960.4,177.6,996,140.6,1024.2,98.4z"/></g></svg>